<svg id="Layer_1" data-name="Layer 1" xmlns="http://www.w3.org/2000/svg" viewBox="0 0 31.78 33.7"><defs><style>.cls-1{fill:#5a822f;}</style></defs><title>25wireframe</title><path class="cls-1" d="M12.32,25.67a2,2,0,0,1-1.49-3.23L15,18.38V7a2,2,0,0,1,4,0V20l-5.45,5.16A1.68,1.68,0,0,1,12.32,25.67Z"/><path class="cls-1" d="M17.93,33.7a18.3,18.3,0,0,1-2.59-.19C6.77,32.29.18,25.37,0,17.4A14.84,14.84,0,0,1,4.43,6.29C5.84,4.92,10.86.4,16.08,0H16.3c4,0.37,8.62,1.1,11.89,5.11,2.68,3.29,3.93,8,3.5,13.23-0.41,5-1.86,8.93-4.3,11.61A12.56,12.56,0,0,1,17.93,33.7Zm-1.75-31c-3.41.31-7.34,3-9.89,5.53a12.2,12.2,0,0,0-3.62,9.14c0.14,6.67,5.76,12.49,13,13.53,1.92,0.27,6.71.56,9.71-2.72,2.54-2.77,3.37-7,3.61-10h0c0.37-4.55-.66-8.58-2.91-11.33S20.58,3.09,16.18,2.68Z"/></svg>