<svg id="location" viewBox="0 0 20.95 36.76"><path class="location" d="M9.91,0C2.71,0.41-.14,7.13,0,13.53,0.19,21.89,5.62,29,9.63,35.94a1.59,1.59,0,0,0,2.24.59,1.38,1.38,0,0,0,1.65-.83c3.31-7.07,7.24-14.88,7.42-22.85C21.09,6.36,17.09-.38,9.91,0Zm7.18,16.49a71.52,71.52,0,0,1-5.68,15.69L7.92,26.13C6.42,23.52,4.78,20.94,4,18,2.65,12.86,2.93,4.1,9.82,3.43,17,2.74,18.15,11.28,17.09,16.51Z M12.64,8.26a1.44,1.44,0,0,0-1.09,0c-5.62-.81-7.92,10.05-1.6,10.4C15.17,18.92,17.72,10.26,12.64,8.26ZM12,13a2.64,2.64,0,0,1-1.38,2.14c-2.09.68-.78-3.87,0.4-3.6a1.74,1.74,0,0,0,.78,0A2,2,0,0,1,12,13Z"/></svg>