<svg id="songs" data-name="Layer 1" xmlns="http://www.w3.org/2000/svg" viewBox="0 0 27.83 34.66" width="25"><defs><style>.cls-1{fill:#95a362;}</style></defs><title>25wireframe</title><path class="songs" d="M14.5,6.49H1.5a1.5,1.5,0,1,0,0,3h13C15.5,9.49,15.5,6.49,14.5,6.49Z"/><path class="songs" d="M14.5,13.49H1.5a1.5,1.5,0,0,0,0,3h13C15.5,16.49,15.5,13.49,14.5,13.49Z"/><path class="songs" d="M14.5,19.49H1.5a1.5,1.5,0,0,0,0,3h13C15.5,22.49,15.5,19.49,14.5,19.49Z"/><path class="songs" d="M20.51,0.36a1.66,1.66,0,0,0-2.66,1.07L17.56,19.2c0,2.32.21,4.91,0,7.28-3.11-.77-6.79-0.75-8.09,2.74C8,33,11.74,35.62,15.15,34.33A7.51,7.51,0,0,0,19.94,30a1.76,1.76,0,0,0,.56-2.17,38.07,38.07,0,0,0,.28-5L21.06,5.65c2.76,3.21,4.75,7.11,2.29,11.24-1.09,1.83,2,3.12,3,1.32C30.39,11.47,25.3,4.9,20.51.36Z"/></svg>