<svg id="Layer_1" data-name="Layer 1" xmlns="http://www.w3.org/2000/svg" viewBox="0 0 36.89 21.18"><defs><style>.cls-1{fill:#95a362;}</style></defs><title>25wireframe</title><path class="cls-1" d="M35.67,3.76c-0.29-1.54-.43-3.15-2.16-3.61S29.6,0.38,28,1a13.59,13.59,0,0,0-4.38,2.85c-0.76.74-1.3,1.84-2.26,2.3a6.83,6.83,0,0,1-3.11.19L17,6.28a1.69,1.69,0,0,0-.64-0.92A23,23,0,0,0,1.66.84,1.66,1.66,0,0,0,0,2.49l1,8A36.11,36.11,0,0,0,2,17c1.17,3.7,4.65,5.24,8.12,3.37,1.79-1,2.93-2.68,4.6-3.78a9,9,0,0,1,7.6-.5c2,0.95,3.58,2.27,5.8,2.85a33.46,33.46,0,0,0,7.15.83,1.67,1.67,0,0,0,1.65-1.65A70.88,70.88,0,0,0,35.67,3.76Zm-22,9.58C11.35,14.59,6.61,21.1,5,15.82,4,12.18,3.84,8,3.48,4.14A20,20,0,0,1,13.93,7.63a3.84,3.84,0,0,0-.29,1.5,15.66,15.66,0,0,0-2.3.25,1.66,1.66,0,0,0-1.15,2,1.68,1.68,0,0,0,2,1.15,9.92,9.92,0,0,1,1.8-.15c0,0.26.07,0.5,0.1,0.73Zm3.64-1.06-0.15-1.65-0.09-1L20,9.69c0,0.85,0,1.69.12,2.53A14.05,14.05,0,0,0,17.33,12.28Zm11.25,3.4c-1.83-.55-3.15-1.71-4.81-2.54L23.51,13c0-.28-0.06-0.7-0.08-1,0,0,.09-0.13.13-0.13h2.12a1.51,1.51,0,1,0,0-3H23.55c-0.08,0-1,0-1,0V8.88c1-.92,2.55-2.41,4-3.51a11.5,11.5,0,0,1,2.35-1.25c0.74-.32,1.8-0.34,2.49-0.69,1-.48.7-0.44,0.94,0.77,0.17,0.86.34,1.72,0.48,2.59a65.13,65.13,0,0,1,.74,9.62A21.1,21.1,0,0,1,28.57,15.68Z"/></svg>