<svg id="Layer_1" data-name="Layer 1" xmlns="http://www.w3.org/2000/svg" viewBox="0 0 43.77 36.88"><defs><style>.cls-1{fill:#3b4427;}</style></defs><title>svgs</title><path class="cls-1" d="M40,12.31H36.1c-0.15-3-.3-6.71-0.42-9.37-0.2-4.35-6.45-3.68-6.25.7,0.12,2.66.26,5.67,0.42,8.67H25c-4,0-4,7,0,7h5.26a27.78,27.78,0,0,1,.4,3.94c0.34,4.32,6.59,5.11,6.25.75-0.14-1.81-.27-4.69-0.4-4.69H40A3.51,3.51,0,1,0,40,12.31Z"/><path class="cls-1" d="M17.69,10.38a5.18,5.18,0,0,0-1.33-1.8,4.28,4.28,0,0,0,.48-1.25,3,3,0,0,0,.43-3,2.43,2.43,0,0,0-2.26-2h0c-0.43-1-1.27-.44-0.9.13,0.21,0.32.42,0.39,0.61,0.71a2.92,2.92,0,0,1-.89,1.72,7.26,7.26,0,0,1-3.12,1.2C8,6.35,4.89,6.31,4,7.35a1.69,1.69,0,0,0,.19,2.49,9,9,0,0,0-.83,7.94c1.54,3.91,7.42,5.45,11.08,3.79S19.18,13.77,17.69,10.38Zm-4.78,8.76c-2,.7-5.63-0.05-6.75-1.9a6,6,0,0,1,.29-5.82l0.29,0.12a8.22,8.22,0,0,0,7.54-.87,2.94,2.94,0,0,1,.73,1C15.91,13.8,15.38,18.28,12.91,19.15Z"/><path class="cls-1" d="M26.4,31.11a20,20,0,0,0-7.42-8,1.41,1.41,0,0,0-1.42,0c-2.65,1.49-8.47,1.78-11-.23a1.48,1.48,0,0,0-1.74-.08,1.3,1.3,0,0,0-1.47.63c-1.44,2.41-4,7-3.18,9.9C0.93,36,5.83,36.23,8,36.51a51.33,51.33,0,0,0,11.34.12c2.64-.25,5.17-0.93,6.56-3.37a1.46,1.46,0,0,0,.16-0.44A1.38,1.38,0,0,0,26.4,31.11Zm-8.78,2.81a61.14,61.14,0,0,1-7.19,0C8.8,33.82,3.55,33.76,3,31.7c-0.17-.69.56-2.2,0.78-2.81a20.75,20.75,0,0,1,1.62-3.44c3.51,2.13,9,2.15,12.74.49a17.1,17.1,0,0,1,5.38,5.82l-0.06.08C22.34,33.86,19.69,33.81,17.63,33.92Z"/></svg>