<svg id="Layer_1" data-name="Layer 1" xmlns="http://www.w3.org/2000/svg" viewBox="0 0 29.09 50.78"><defs><style>.cls-1{fill:#5b6053;}</style></defs><title>edit_delete</title><path class="cls-1" d="M28.74,3.4c-1.1-2.47-4.83-2.92-7.16-3.27-3.23-.49-4,0.4-5.37,3.3-5,10.32-9.39,21-14.08,31.43a2,2,0,0,0,0,1.69c-0.49,4-1.19,7.86-2.06,11.75A2,2,0,0,0,3,50.55c2.14-1,3.6-2.79,5.15-4.54a12.68,12.68,0,0,1,2.61-2.37,5.29,5.29,0,0,0,2.29-2,2.09,2.09,0,0,0,.22-0.68c2.7-2.2,4.49-8.3,5.68-11.05,2-4.59,3.88-9.2,5.82-13.8C26.08,13,30.33,7,28.74,3.4Zm-6.53,1c1.63,0.18,2.16.32,2.5,1.65A4.27,4.27,0,0,1,24,8.2a34.45,34.45,0,0,0-4.28-2.88C21,3.6,20,4.1,22.21,4.35ZM7.7,40.9a15.62,15.62,0,0,0-2.16,2l-0.46.52c0.23-1.33.45-2.67,0.65-4,0.69,0.39,1.45.86,2.25,1.28Zm7.07-11.37c-1,2.35-2.24,5.75-3.94,8C9.5,37,8.08,36.11,6.94,35.56a2.12,2.12,0,0,0-.68-0.19L13.4,19.42l3.91-8.73c0.23-.51.46-1.12,0.7-1.75a30,30,0,0,1,4.21,3L19,19.52C17.61,22.86,16.24,26.22,14.77,29.53Z"/></svg>