<svg id="Layer_1" data-name="Layer 1" xmlns="http://www.w3.org/2000/svg" viewBox="0 0 43.27 55.9"><defs><style>.cls-1{fill:#5b6053;}</style></defs><title>edit_delete</title><path class="cls-1" d="M39.27,6.19A14.13,14.13,0,0,0,33.52,5c-1.08-4.77-5.1-5.11-9.64-5-5.3.14-9.38-.45-11.42,4.91a34.45,34.45,0,0,0-5.66.59C3,6.3,2.95,9.09,1,11.94a2.17,2.17,0,0,0-.22.39A2.1,2.1,0,0,0,.9,15.68a4.6,4.6,0,0,0,1.26.57,2.06,2.06,0,0,0,0,.82C4.88,27.51,6.44,38,8,48.6c1.18,7.83,9.24,6.31,15.53,6.7,3,0.18,7.85,1.56,10.38-.57,2.31-1.94,2.38-6.24,2.91-8.95a278.89,278.89,0,0,0,4.09-29.35,2.23,2.23,0,0,0,.49-0.07,1.68,1.68,0,0,0,1.83-1.91C43,11.33,42.37,7.76,39.27,6.19ZM23.26,4c1.66,0,5.07-.78,6.13,1-1.62.07-3.17,0.16-4.5,0.14-2.45,0-5.09-.18-7.74-0.25C18.66,3.68,21.19,4.09,23.26,4ZM5.06,12.75a6.09,6.09,0,0,1,.61-1.11C7.65,9,7.79,9.8,10,9.34c3-.62,6.79-0.17,9.89-0.17s5.94,0,8.91.1c3.74,0.09,8.39-.51,9.93,3.18l-17.62,0H12.3C10.87,12.47,7.46,12.92,5.06,12.75ZM34.06,39c-0.57,3.31-.82,7.28-2,10.44-0.93,2.43-1.48,2.27-4,2.12l-5.38-.33c-2.79-.17-9,0.6-10.57-2.21-1.35-2.35-1-7.87-1.42-10.67C9.55,31,8,23.72,6.19,16.51c0.4,0,.8,0,1.18,0H18.21l18.73,0C36.28,24,35.35,31.53,34.06,39Z"/><path class="cls-1" d="M17.43,45.76Q16.1,32.83,14.48,19.94c-0.32-2.52-4.32-2.55-4,0q1.62,12.9,2.95,25.82C13.69,48.3,17.7,48.33,17.43,45.76Z"/><path class="cls-1" d="M23.92,20.29c-0.12-2.56-4.12-2.58-4,0q0.59,12.42,0,24.82c-0.11,2.57,3.89,2.57,4,0Q24.52,32.7,23.92,20.29Z"/><path class="cls-1" d="M29.2,20.45c-0.5,8.64-1.71,17.22-2.8,25.8-0.32,2.55,3.68,2.52,4,0,1.09-8.58,2.3-17.16,2.8-25.8C33.35,17.88,29.35,17.89,29.2,20.45Z"/></svg>