<svg id="Layer_1" data-name="Layer 1" xmlns="http://www.w3.org/2000/svg" viewBox="0 0 48.54 40.6"><defs><style>.cls-1{fill:#3b4427;}</style></defs><title>svgs</title><path class="cls-1" d="M46.81,11.46H45.08c0-2-.34-4.21-1.91-5.62-2.37-2.12-6.67-1.22-9.54-1.2l-13.37.11c-1.35,0-4,.27-5.08-0.51-0.64-.47-0.92-1.64-1.35-2.3A3.27,3.27,0,0,0,11.5.15c-1.57-.37-3.63,0-5.23.1C4.85,0.3,3.34.18,2.09,0.91-0.44,2.4.16,6.5,0.14,9,0,18.32,0,27.68,0,37a1.59,1.59,0,0,0,1.38,1.68,1.65,1.65,0,0,0,1.54,1l17.21,0.38,8.95,0.2c2.05,0,5.05.7,7-.09a4.18,4.18,0,0,0,2.17-2.69c1-2.39,1.7-4.9,2.67-7.31,2.21-5.48,4.81-10.79,7.39-16.1A1.79,1.79,0,0,0,46.81,11.46Zm-43-6C4.35,3.1,6.11,3.8,8.1,3.73c1.48-.05,1.9-0.3,2.77.63,1.38,1.48,1.59,2.78,3.81,3.52,2.75,0.92,6.07.43,8.91,0.4l10-.08c1.56,0,3.84-.45,5.35,0,2.38,0.65,2.64,1.73,2.59,3.34-4.17,0-8.34.08-12.5,0.17q-4.1.09-8.19,0.21c-1.94.06-4.6-.28-6.43,0.59-1.67.79-2.62,2.77-3.58,4.23-1.36,2.07-2.71,4.14-4,6.25q-1.74,2.85-3.27,5.8,0-6.11.06-12.23C3.66,13.1,3,8.77,3.78,5.45ZM39.21,25.27c-0.84,1.92-1.64,3.86-2.4,5.82-0.39,1-.77,2-1.13,3-0.64,1.81-.31,2.55-2.49,2.72-4.94.39-10.18-.23-15.14-0.34L4,36.2A78.6,78.6,0,0,1,9.6,25.26c1.07-1.77,2.18-3.5,3.3-5.23,1.55-2.37,2.3-4.12,5.24-4.52,4.41-.6,9.2-0.27,13.65-0.35Q37.88,15,44,15C42.33,18.41,40.71,21.82,39.21,25.27Z"/></svg>