<svg id="Layer_1" data-name="Layer 1" xmlns="http://www.w3.org/2000/svg" viewBox="0 0 30.46 22.68"><defs><style>.cls-1{fill:#ede3d6;}.cls-2{fill:#604b2e;}</style></defs><title>file_icons</title><polygon class="cls-1" points="2.59 8.01 8.39 7.75 13.42 2.17 14.11 20.94 8.26 17.26 5.35 17.26 1.61 16.53 2.59 8.01"/><path class="cls-2" d="M14.84,1.26A1.26,1.26,0,0,0,12.71.38L7.51,6.14c-2.09,0-4.45-.36-6.44.25a1.25,1.25,0,0,0-.87.87c-0.43,2-.05,4.29.06,6.35,0.06,1.17-.21,3.27.79,4.21s2.4,0.5,3.46.48c4.11-.09,5.66,1.38,8.65,4a1.26,1.26,0,0,0,2.13-.88Q15.41,11.35,14.84,1.26ZM2.63,15.84s0.06-3.53.05-3.59c-0.07-1.42-.58-2.69.82-3.62,0.73-.48,3.42,0,4.23,0a1.2,1.2,0,0,0,.58-0.15,1.08,1.08,0,0,0,.77-0.38l3.4-3.78q0.33,7.18.32,14.36c-2-1.71-4-3-7-2.93C5.34,15.78,2.94,16.18,2.63,15.84Z"/><path class="cls-2" d="M18.79,7a1.25,1.25,0,0,0-2.15,1.26c0.69,1.2,1.22,3.63.34,4.85s1.23,2.55,2.15,1.26C20.53,12.43,19.91,8.95,18.79,7Z"/><path class="cls-2" d="M21.43,3.37a1.25,1.25,0,0,0-1.26,2.15c3.24,2,4.4,8.32,1,10.72-1.3.92-.06,3.08,1.26,2.15C27.38,14.91,26.42,6.38,21.43,3.37Z"/><path class="cls-2" d="M29.56,4.23C28.69,2.43,27.08,2.17,26,.73,25-.52,22.84.72,23.82,2a18.06,18.06,0,0,0,1.6,1.48C27.66,5.86,27.91,6.92,28,9.93c0.05,4.12-1.1,7.41-4.27,10.14-1.22,1.05.55,2.81,1.76,1.76a14.25,14.25,0,0,0,5-11.28C30.47,8.47,30.48,6.15,29.56,4.23Z"/></svg>