<svg id="Layer_1" data-name="Layer 1" xmlns="http://www.w3.org/2000/svg" viewBox="0 0 38.31 50.02"><defs><style>.cls-1{fill:#5b6053;}</style></defs><title>files_icon</title><path class="cls-1" d="M36.42,50H1.9A1.9,1.9,0,0,1,0,48.12V1.9A1.9,1.9,0,0,1,1.9,0H24a1.9,1.9,0,0,1,1.31.52L37.72,12.34a1.9,1.9,0,0,1,.59,1.38v34.4A1.9,1.9,0,0,1,36.42,50ZM3.8,46.23H34.52V14.54L23.21,3.8H3.8V46.23Z"/><path class="cls-1" d="M25.49,33.62a0.9,0.9,0,0,0,0-.4,173.32,173.32,0,0,0,.25-17.5A0.9,0.9,0,0,0,25.36,15a0.76,0.76,0,0,0-1-.41c-2.79,1.13-5.69,3.33-8.85,2.71a1.34,1.34,0,0,0-1.25.44,1.11,1.11,0,0,0-.56.71V36.18a4.42,4.42,0,0,0-3.36,2.43A1.81,1.81,0,0,0,10.88,41a3.31,3.31,0,0,0,2.8-.1c1.11-.51,2.65-2.49,2.07-3.77,0,0-.08-0.08-0.08-0.13V25.39a30.4,30.4,0,0,0,8.12-2.94c0,3.34,0,6.67-.22,10a3.77,3.77,0,0,0-2.8,2,2.67,2.67,0,0,0-.25,2.32,2,2,0,0,0,2.36.75c1.34-.38,3.57-2.14,2.53-3.66A1,1,0,0,0,25.49,33.62ZM15.67,23.44V19.25c3,0.16,5.46-1.28,8-2.44,0,1.16,0,2.32,0,3.48A28.61,28.61,0,0,1,15.67,23.44Z"/></svg>