<svg id="Layer_1" data-name="Layer 1" xmlns="http://www.w3.org/2000/svg" viewBox="0 0 31.49 23.64"><defs><style>.cls-1{fill:#ede3d6;}.cls-2{fill:#604b2e;}</style></defs><title>file_icons</title><polygon class="cls-1" points="1.98 1.55 29.05 1.87 29.92 21.86 2.73 22.18 1.6 20.9 1.98 1.55"/><polygon class="cls-1" points="5.97 18.69 10.59 12.36 13.7 14.55 18.57 9.01 20.32 9.47 26.18 18.69 5.97 18.69"/><path class="cls-2" d="M31.32,21.54s0,0,0-.07a131,131,0,0,0-.91-19.95A1.25,1.25,0,0,0,29.18.31a2,2,0,0,0-.58,0L1.82,0A1.23,1.23,0,0,0,.46,1.34v0q-0.6,10-.4,20a1.1,1.1,0,0,0,.12.47,1.27,1.27,0,0,0,1.3,1.67q14.32,0.37,28.65,0A1.26,1.26,0,0,0,31.32,21.54ZM2.9,21.05q-0.18-9.3.35-18.59L27.7,2.73A131,131,0,0,1,28.48,21Q15.69,21.34,2.9,21.05Z"/><path class="cls-2" d="M27.75,18.68L21.49,9.41c-0.59-.87-1.25-2.17-2.7-1.72-1.25.39-2.19,2.08-2.93,3l-1.51,1.82-0.56.69-0.09.07-0.1-.1c-0.85-.82-1.79-2.21-3.28-1.87s-2.23,2-3,2.95c-1.1,1.47-2.12,3-3.08,4.53-0.53.85,0.32,1.71,1.37,1.58l0.14,0a5.46,5.46,0,0,0,1.8,0,1.57,1.57,0,0,0,.31,0l18.45-.08C27.26,20.44,28.37,19.6,27.75,18.68ZM9.69,15a12.75,12.75,0,0,1,1.06-1.48c1.15,1.09,2.43,3.05,4.2,1.8a14.35,14.35,0,0,0,2.3-2.74l1.14-1.36c0.14-.17.48-0.69,0.81-1.1,0.43,0.6.8,1.3,1.17,1.85l1.74,2.58,2.37,3.51L8.33,18.2a1.59,1.59,0,0,0-.55-0.13H7.56q0.54-.81,1.11-1.61T9.69,15Z"/><path class="cls-2" d="M6.83,5.26a2,2,0,1,0,0,4A2,2,0,1,0,6.83,5.26Z"/></svg>