<svg id="Layer_1" data-name="Layer 1" xmlns="http://www.w3.org/2000/svg" viewBox="0 0 31.42 21.54"><defs><style>.cls-1{fill:#ede3d6;}.cls-2{fill:#604b2e;}</style></defs><title>file_icons</title><polygon class="cls-1" points="1.21 2.02 30.62 1.27 30.46 20.27 1.12 20.52 1.21 2.02"/><path class="cls-2" d="M31.37,19.63V1.14a1.19,1.19,0,0,0,0-.58A0.85,0.85,0,0,0,30.47,0C20.76,0.55,11.09.83,1.36,0.83a1,1,0,0,0-.94.55,1,1,0,0,0-.43.9q0.19,9,.07,17.91a1,1,0,0,0,.41.87,1,1,0,0,0,.92.48l29.15-.22C31.53,21.31,31.37,20.3,31.37,19.63Zm-29-8.14c0.89,0,1.78-.19,2.67-0.23l0,1.35H2.4S2.4,11.93,2.4,11.49Zm0-2.34c0-.43,0-1.55,0-1.55H5.12s0,0.9,0,1.29C4.2,8.94,3.29,9.11,2.39,9.16Zm0.32,8.45a1.77,1.77,0,0,0-.32.27c0-.83,0-1.27,0-2.27H5l0,2H2.71Zm2.47-13s0,1,0,1H2.35s0-1,0-1H5.18ZM7.24,19.22l0.13-8.67a1.32,1.32,0,0,0,0-.39l0.1-6.74a1.17,1.17,0,0,0-.05-0.35Q15.51,3,23.6,2.63q0.25,4,.49,8a1.33,1.33,0,0,0,0,.32q0.24,4.08.47,8.16ZM29.37,18a19.91,19.91,0,0,1-2.6.17c0-.62,0-1.56-0.08-1.56h2.68V18Zm0-4.39H26.56c0-1-.1-1.2-0.14-1.9,1,0,2,.16,3,0.08v1.82Zm0-4.1c-1,.09-2-0.05-3.09-0.07,0-.55,0-1.84-0.08-1.84h3.17v1.9Zm0-3.9H26.07c0-1-.08-1-0.12-2h3.43v2Z"/><path class="cls-2" d="M19.52,9.92q-1.7-1-3.43-1.93c-0.86-.47-2-1.24-2.89-0.49-0.75.59-.56,1.8-0.56,2.64,0,1.41,0,2.83.08,4.24a1.15,1.15,0,0,0,1.72,1l4.61-3a1.21,1.21,0,0,0,.39-0.42l0.1-.06A1.15,1.15,0,0,0,19.52,9.92Z"/></svg>