<svg id="Layer_1" data-name="Layer 1" xmlns="http://www.w3.org/2000/svg" viewBox="0 0 38.31 50.02"><defs><style>.cls-1{fill:#5b6053;}</style></defs><title>files_icon</title><path class="cls-1" d="M36.42,50.43H1.9A1.9,1.9,0,0,1,0,48.54V2.31A1.9,1.9,0,0,1,1.9.41H24a1.9,1.9,0,0,1,1.31.52L37.72,12.76a1.9,1.9,0,0,1,.59,1.38v34.4A1.9,1.9,0,0,1,36.42,50.43ZM3.8,46.64H34.52V14.95L23.21,4.21H3.8V46.64Z"/><path class="cls-1" d="M21.8,37.79Q22,30.65,21.7,23.5a1,1,0,0,0-.95-0.95L7.63,21.86a1,1,0,0,0-.3,0,0.85,0.85,0,0,0-1.07.9L7.2,37.1c0.09,1.34-.32,4.22,1.21,4.9a8.13,8.13,0,0,0,2.39.39q1.86,0.21,3.73.31T18,42.8a7.12,7.12,0,0,0,2.67-.19C22.22,42,21.75,39.12,21.8,37.79ZM20,34.88c0,1.85-.21,3.71-0.19,5.56,0,0.69.24,0.47-.45,0.45-0.44,0-.89,0-1.34,0q-1.47,0-2.94-.07t-2.67-.18c-0.83-.07-2.36,0-2.89-0.6s-0.35-2.14-.4-3L8.92,34.45,8.22,23.79,19.84,24.4C20,27.89,20,31.39,20,34.88Z"/><path class="cls-1" d="M25.93,33.66q0.25-7.15-.09-14.29a1,1,0,0,0-.95-0.95l-13.13-.69a1,1,0,0,0-.3,0,0.85,0.85,0,0,0-1.07.9L11.33,33c0.09,1.34-.32,4.22,1.21,4.9a8.13,8.13,0,0,0,2.39.39q1.86,0.21,3.73.31t3.48,0.09a7.12,7.12,0,0,0,2.67-.19C26.35,37.83,25.88,35,25.93,33.66Zm-1.82-2.91c0,1.85-.21,3.71-0.19,5.56,0,0.69.24,0.47-.45,0.45-0.44,0-.89,0-1.34,0q-1.47,0-2.94-.07t-2.67-.18c-0.83-.07-2.36,0-2.89-0.6s-0.35-2.14-.4-3l-0.17-2.65-0.7-10.66L24,20.27C24.12,23.76,24.17,27.25,24.11,30.75Z"/><path class="cls-1" d="M30.35,29.24q0.25-7.15-.09-14.29A1,1,0,0,0,29.31,14l-13.13-.69a1,1,0,0,0-.3,0,0.85,0.85,0,0,0-1.07.9l0.94,14.31c0.09,1.34-.32,4.22,1.21,4.9a8.13,8.13,0,0,0,2.39.39q1.86,0.21,3.73.31t3.48,0.09a7.12,7.12,0,0,0,2.67-.19C30.77,33.41,30.3,30.57,30.35,29.24Zm-1.82-2.91c0,1.85-.21,3.71-0.19,5.56,0,0.69.24,0.47-.45,0.45-0.44,0-.89,0-1.34,0q-1.47,0-2.94-.07t-2.67-.18c-0.83-.07-2.36,0-2.89-0.6s-0.35-2.14-.4-3l-0.17-2.65-0.7-10.66,11.62,0.61C28.54,19.34,28.59,22.83,28.53,26.33Z"/></svg>