<svg id="Layer_1" data-name="Layer 1" xmlns="http://www.w3.org/2000/svg" viewBox="0 0 38.31 50.02"><defs><style>.cls-1{fill:#5b6053;}</style></defs><title>files_icon</title><path class="cls-1" d="M36.42,50H1.9A1.9,1.9,0,0,1,0,48.12V1.9A1.9,1.9,0,0,1,1.9,0H24a1.9,1.9,0,0,1,1.31.52L37.72,12.34a1.9,1.9,0,0,1,.59,1.38v34.4A1.9,1.9,0,0,1,36.42,50ZM3.8,46.23H34.52V14.54L23.21,3.8H3.8V46.23Z"/><path class="cls-1" d="M31.85,21.64a0.6,0.6,0,0,0,0-.11,0.47,0.47,0,0,0,0-.05,0.54,0.54,0,0,0,0-.45c-0.07-1-.15-2-0.21-3a0.58,0.58,0,0,0-.86-0.45q-12.16.19-24.32,0.06c-0.16,0-.09.05-0.18,0.14S6,18,6,18.3v3s-0.13.09-.12,0.12,0,0,.17.05C6.06,27.76,6,34,6,40c0,1,1.09,1,1.08,0l0.06-2A8.49,8.49,0,0,1,9,37.16v0.47c0,0.17-.47.55-0.19,0.84,0.09,0.1.16,0.2,0.25,0.29A0.54,0.54,0,0,0,10,38.39Q10,30.2,10,22a0.58,0.58,0,0,0,0-.09h2a1,1,0,0,0,0,.92,7.27,7.27,0,0,0,1.38,1.81,0.95,0.95,0,1,0,1.34-1.34,5.15,5.15,0,0,1-1.06-1.38h3.71a2,2,0,0,0-.31.3v1.63a1,1,0,0,0,2,0V22.23a1.38,1.38,0,0,0,.14-0.31l2.65,0c-0.36.39-.68,0.78-1,1.17a1,1,0,0,0,1.37,1.34L23.42,23a1,1,0,0,0,.17-1.12l4-.05c0,2.57.23,5.13,0.23,7.7,0,1.24.23,2.48,0.23,3.72v2.13c0,0.21-.19.89-0.18,1.27a0.84,0.84,0,0,0-.26.19s-0.09.07-.1,0.1a0.55,0.55,0,0,0,.17.74l0.11,0.08a0.6,0.6,0,0,0,.69-0.08,1.59,1.59,0,0,0,.34-0.8A12.13,12.13,0,0,0,30.9,38,0.54,0.54,0,0,0,32,37.91Q31.74,29.78,31.85,21.64Zm-25-1.18V18.73H7.88A12.48,12.48,0,0,0,6.8,20.46Zm0.26,2.28,1.07,1.33a4.18,4.18,0,0,0-1.07.52V22.74ZM8.88,25q0,0.66,0,1.33a9.31,9.31,0,0,1-1.11-.9A3,3,0,0,1,8.88,25ZM7.07,26.24A10.64,10.64,0,0,0,8,27a8.92,8.92,0,0,0-1,.54V26.24Zm1.81,1.62q0,0.63,0,1.27a12.17,12.17,0,0,0-1.06-.72A8,8,0,0,1,8.88,27.85ZM7.07,29.22a11.12,11.12,0,0,1,1.51,1,5.06,5.06,0,0,1-1.51.94v-2Zm1.81,2.2v0.89a6.56,6.56,0,0,0-.71-0.44A6.2,6.2,0,0,0,8.88,31.42Zm-1.8,1.14a5.36,5.36,0,0,1,1.16.62,9.9,9.9,0,0,1-1.16,1V32.55Zm0,4.48V35.67l1,0.69Zm0.8-2.13a11,11,0,0,0,1-.84q0,0.75,0,1.5ZM8.88,22q0,0.63,0,1.27L7.78,21.9H8.89A0.6,0.6,0,0,0,8.88,22Zm-1-1.19a11.6,11.6,0,0,1,.84-1.34q0.35,0.69.77,1.35H7.83Zm1.69-2.07h2.12c-0.46.45-.9,0.93-1.33,1.41A15.63,15.63,0,0,1,9.52,18.75Zm1.64,2.09q0.62-.71,1.3-1.36a11.37,11.37,0,0,1,.34,1.37H11.16Zm2.2-2.07h1a11.89,11.89,0,0,1-.64,1C13.58,19.43,13.48,19.1,13.36,18.77Zm0.86,2.08a12.63,12.63,0,0,0,1-1.42c0.32,0.47.63,0.94,0.92,1.42H14.22ZM16.83,20q-0.38-.6-0.78-1.19h1.3C17.16,19.16,17,19.56,16.83,20Zm14,12.76q0,0.69,0,1.38l-1.47-.66A6.77,6.77,0,0,1,30.79,32.72Zm-2-.16V31.42a9.43,9.43,0,0,0,.94.62A6.29,6.29,0,0,0,28.76,32.57Zm0.53-2,1.45-1.18c0,0.69,0,1.39,0,2.08A15,15,0,0,1,29.29,30.54Zm1.44-4.17c0,0.4,0,.81,0,1.21l-1.15-.91A6.81,6.81,0,0,1,30.73,26.37Zm-2-.5v-1.2a11.76,11.76,0,0,0,1,.84A5.7,5.7,0,0,0,28.76,25.88Zm2-.9q-0.73-.59-1.45-1.2a6.65,6.65,0,0,0,1.46-1.2C30.75,23.39,30.74,24.18,30.74,25Zm-2-2.09V21.81l1.36,0A5,5,0,0,1,28.76,22.89Zm1.87-4.22c0,0.5.06,1,.09,1.49a9.46,9.46,0,0,1-1.46-1.47Zm-13,2.17q0.23-.62.5-1.22l1.09,1.22H17.64Zm2.81-.27-1.62-1.8h2.23C20.88,19.37,20.68,20,20.45,20.57Zm1.48-.94q0.44,0.58.83,1.18H21.52C21.67,20.43,21.8,20,21.93,19.63ZM23.54,20q-0.43-.65-0.92-1.27h1.53A4.65,4.65,0,0,1,23.54,20Zm0.78,0.78a5.81,5.81,0,0,0,.62-1.08c0.29,0.35.56,0.7,0.83,1.06Zm1.21-2.07,2,0L26.6,20.09Q26.09,19.39,25.52,18.73Zm1.94,2,0.95-1.4a10.88,10.88,0,0,0,1.29,1.36ZM29,27.34c0,0.38,1,.76,1.45,1.14L29,29.66V27.34Zm-0.25,7.78V34.36l1.18,0.53a9,9,0,0,0-1.16.73C28.77,35.44,28.76,35.27,28.76,35.11Zm1,1.13a8.48,8.48,0,0,1,1.06-.59c0,0.4,0,.8,0,1.19A11,11,0,0,1,29.78,36.24Z"/><rect class="cls-1" x="6" y="37.03" width="25.96" height="6.47"/><path class="cls-1" d="M24,25.39a0.9,0.9,0,0,0-.7-0.3,2.74,2.74,0,0,0-.92.5,3.65,3.65,0,0,0-.93.62,0.84,0.84,0,0,0,0,.86,21.09,21.09,0,0,0-1.65,1.33,1.31,1.31,0,0,0-.58-0.67,1.46,1.46,0,0,0-1.06.21,1.25,1.25,0,0,0-.73.59,3.64,3.64,0,0,0-.16,1l-1.34.21a4.13,4.13,0,0,0-1.15.21,1.44,1.44,0,0,0-.51,1.44,4.45,4.45,0,0,0,2,3.62c0.92,0.61,2.54,1.14,3.15-.14a4,4,0,0,0,.28-1.09,4.44,4.44,0,0,1,.1-1,4,4,0,0,1,1.2-.46l1.47-.53a0.39,0.39,0,0,0,.23-0.57,1.1,1.1,0,0,0-.55-0.54c-0.23-.11-0.74-0.11-1-0.24a17.86,17.86,0,0,1,1.67-2,1,1,0,0,0,.78-0.2,4.39,4.39,0,0,0,.6-1.14,2.34,2.34,0,0,0,.4-0.94A1.15,1.15,0,0,0,24,25.39ZM23.32,27a1.8,1.8,0,0,1-.24.49,0.43,0.43,0,0,1-.33.06,0.4,0.4,0,0,0-.19.06,0.31,0.31,0,0,0-.28.13l-1.19,1.47a3.11,3.11,0,0,0-.81,1.13c-0.11.71,0.7,0.71,1.27,0.88l-1.16.42a3,3,0,0,0-1.18.51,1.88,1.88,0,0,0-.22,1.1c-0.09.82-.22,1.79-1.3,1.54a3.6,3.6,0,0,1-2.52-2.56A3.91,3.91,0,0,1,15,31.41c0-.56,0-0.67.51-0.81a18,18,0,0,1,2-.32,0.34,0.34,0,0,0,.18-0.08A0.4,0.4,0,0,0,18,29.88l0.09-.68a0.44,0.44,0,0,1,.28-0.5A1.38,1.38,0,0,1,19,28.46a1.45,1.45,0,0,1,.28.53h0a0.4,0.4,0,0,0,.65.39A19.49,19.49,0,0,1,22,27.62a0.4,0.4,0,0,0,.12-0.14,0.33,0.33,0,0,0,.15-0.41c0-.12-0.12-0.29-0.16-0.43,0.28-.22.64-0.39,0.93-0.57l0.23-.15q0.08-.11.14,0a0.94,0.94,0,0,1,.34.24C23.65,26.48,23.45,26.78,23.32,27Z"/><path class="cls-1" d="M18,32.59v0.77C19,33.36,19,32.59,18,32.59Z"/><path class="cls-1" d="M18,33.48a0.63,0.63,0,1,0,0,1.24A0.63,0.63,0,1,0,18,33.48Z"/><path class="cls-1" d="M17,33.4c-1,0-1,.62,0,0.62V33.4Z"/></svg>