<svg id="Layer_1" data-name="Layer 1" xmlns="http://www.w3.org/2000/svg" viewBox="0 0 28.26 30.22"><defs><style>.cls-1{fill:#ede3d6;}.cls-2{fill:#604b2e;}</style></defs><title>file_icons</title><path class="cls-1" d="M23.64,4c-0.86-.75-1.73-1.5-2.6-2.24L10.47,1.34l1.16,20.37L26.5,22.83l0.19-16A39.21,39.21,0,0,1,23.64,4Z"/><path class="cls-2" d="M28.23,8.21a9.21,9.21,0,0,1-.88-1C25.9,6.46,24.78,5,23.64,4S21.39,2.07,20.26,1.1C20,0.87,19.7.65,19.42,0.43L10.51,0a1.32,1.32,0,0,0-.37,0A1,1,0,0,0,8.81,1L10,17.16c0.11,1.51-.39,4.75,1.5,5.52a11.09,11.09,0,0,0,3,.44q2.32,0.24,4.65.35,2.16,0.1,4.33.1a9.77,9.77,0,0,0,3.33-.21c1.92-.73,1.34-3.92,1.39-5.42C28.27,14.7,28.29,11.45,28.23,8.21Zm-2.35,6.45c0,2.08-.26,4.18-0.23,6.25,0,0.77.3,0.53-.56,0.5-0.55,0-1.11,0-1.66,0q-1.83,0-3.66-.07-1.66-.07-3.32-0.2c-1-.08-2.94,0-3.6-0.67s-0.44-2.41-.5-3.33l-0.22-3-0.87-12,8.33,0.4,6.3,5.73C25.92,10.42,25.92,12.54,25.88,14.66Z"/><path class="cls-1" d="M19.24,7.33c-0.86-.75-1.73-1.5-2.6-2.24L6.06,4.65,7.23,25,22.1,26.14l0.19-16A39.21,39.21,0,0,1,19.24,7.33Z"/><path class="cls-2" d="M23.83,11.52a9.21,9.21,0,0,1-.88-1c-1.44-.78-2.57-2.21-3.71-3.22S17,5.38,15.85,4.41C15.58,4.17,15.29,4,15,3.73l-8.9-.43a1.32,1.32,0,0,0-.37,0,1,1,0,0,0-1.34,1L5.58,20.46C5.69,22,5.18,25.21,7.08,26a11.09,11.09,0,0,0,3,.44q2.32,0.24,4.65.35,2.16,0.1,4.33.1a9.77,9.77,0,0,0,3.33-.21c1.92-.73,1.34-3.92,1.39-5.42C23.87,18,23.88,14.76,23.83,11.52ZM21.48,18c0,2.08-.26,4.18-0.23,6.25,0,0.77.3,0.53-.56,0.5-0.55,0-1.11,0-1.66,0q-1.83,0-3.66-.07Q13.7,24.6,12,24.47c-1-.08-2.94,0-3.6-0.67S8,21.38,7.94,20.46l-0.22-3-0.87-12,8.33,0.4,6.3,5.73C21.51,13.73,21.52,15.85,21.48,18Z"/><path class="cls-1" d="M14.83,10.63c-0.86-.75-1.73-1.5-2.6-2.24L1.66,8,2.82,28.32,17.7,29.45l0.19-16A39.21,39.21,0,0,1,14.83,10.63Z"/><path class="cls-2" d="M19.43,15.49a1,1,0,0,0-.16-1.05c-0.42-1.58-2-2.5-3.25-3.71-1.4-1.38-3.36-3.21-5.35-3.65l0,0H10.44L10.21,7A0.82,0.82,0,0,0,10,7L1.71,6.61a1.32,1.32,0,0,0-.37,0A1,1,0,0,0,0,7.66L1.17,23.77c0.11,1.51-.39,4.75,1.5,5.52a11.1,11.1,0,0,0,3,.44Q8,30,10.29,30.08q2.16,0.1,4.33.1A9.77,9.77,0,0,0,17.95,30c1.92-.73,1.34-3.92,1.39-5.42C19.46,21.53,19.47,18.51,19.43,15.49Zm-2.85-1c-0.41.05-.82,0.1-1.24,0.11-0.58,0-2.79.2-3.16-.25S12,12.39,12,11.79s0-1,0-1.56Zm0.49,6.81c0,2.08-.26,4.18-0.23,6.25,0,0.77.3,0.53-.56,0.5-0.55,0-1.11,0-1.66,0Q12.79,28,11,28q-1.66-.07-3.32-0.2c-1-.08-2.94,0-3.6-0.67s-0.44-2.41-.5-3.33l-0.22-3-0.87-12,7.69,0.37c0,1.34,0,2.69.07,4,0.05,0.85-.12,2.18.73,2.69a8.34,8.34,0,0,0,3.57.52,16.17,16.17,0,0,0,2.58-.17C17.1,17.91,17.11,19.59,17.07,21.28Z"/></svg>