<svg id="Layer_1" data-name="Layer 1" xmlns="http://www.w3.org/2000/svg" viewBox="0 0 38.31 50.02"><defs><style>.cls-1{fill:#5b6053;}</style></defs><title>files_icon</title><path class="cls-1" d="M36.42,50.43H1.9A1.9,1.9,0,0,1,0,48.54V2.31A1.9,1.9,0,0,1,1.9.41H24a1.9,1.9,0,0,1,1.31.52L37.72,12.76a1.9,1.9,0,0,1,.59,1.38v34.4A1.9,1.9,0,0,1,36.42,50.43ZM3.8,46.64H34.52V14.95L23.21,4.21H3.8V46.64Z"/><path class="cls-1" d="M32,33.28V17.9a0.92,0.92,0,0,0-.13-0.48,0.8,0.8,0,0,0-.82-0.47q-12.12.69-24.26,0.69a0.86,0.86,0,0,0-.8.46,0.84,0.84,0,0,0-.36.75Q5.8,26.3,5.7,33.76a0.85,0.85,0,0,0,.34.72,0.85,0.85,0,0,0,.76.4l24.39-.19C32,34.69,32,33.85,32,33.28ZM7.63,26.57c0.74,0,1.48-.13,2.22-0.16l0,1.15H7.63S7.63,26.94,7.63,26.57Zm0-1.86c0-.35,0-1.15,0-1.15H9.9s0,0.68,0,1C9.13,24.59,8.37,24.67,7.62,24.7Zm0.27,6.85a1,1,0,0,0-.27.06c0-.69,0-1.06,0-2.06H9.81l0,2H7.89Zm2.06-11s0,1,0,1H7.59s0-1,0-1H9.94Zm1.71,12.39,0.11-7.21a1.1,1.1,0,0,0,0-.32l0.08-5.61a1,1,0,0,0,0-.29q6.73-.08,13.46-0.37,0.21,3.32.41,6.65a1.11,1.11,0,0,0,0,.26q0.2,3.4.39,6.79Zm18.35-1a15.32,15.32,0,0,1-2.12,0c0-.52,0-1.4,0-1.4H30v1.37Zm0-3.37H27.74c0-1-.12-1.14-0.16-1.72,0.83,0,1.42,0,2.42-.08v1.79Zm0-3.69c-1,.08-1.67.09-2.53,0.08,0-.46,0-1.39,0-1.39H30v1.31Zm0-3.31H27.33c0-1-.07-1-0.1-2H30v2Z"/><path class="cls-1" d="M21.88,25.2q-1.42-.82-2.86-1.61c-0.71-.39-1.62-1-2.41-0.41-0.62.49-.46,1.5-0.47,2.2,0,1.18,0,2.35.06,3.53a1,1,0,0,0,1.43.82l3.84-2.49a1,1,0,0,0,.32-0.35l0.08,0A1,1,0,0,0,21.88,25.2Z"/></svg>