<svg id="Layer_1" data-name="Layer 1" xmlns="http://www.w3.org/2000/svg" viewBox="0 0 31.56 27.64"><defs><style>.cls-1{fill:#5b6053;}</style></defs><title>image</title><path class="cls-1" d="M31.38,25.19s0-.05,0-0.09a178.44,178.44,0,0,0-.91-23.32A1.37,1.37,0,0,0,29.24.37a1.69,1.69,0,0,0-.59,0L1.83,0A1.35,1.35,0,0,0,.46,1.56v0Q-0.15,13.25.05,24.93a1.47,1.47,0,0,0,.12.56,1.45,1.45,0,0,0,1.31,2q14.35,0.43,28.71,0A1.48,1.48,0,0,0,31.38,25.19ZM2.91,24.61Q2.73,13.74,3.25,2.88l24.5,0.31a178.47,178.47,0,0,1,.79,21.38Q15.73,25,2.91,24.61Z"/><path class="cls-1" d="M27.81,21.85L21.54,11c-0.59-1-1.26-2.53-2.71-2-1.26.45-2.19,2.43-2.93,3.46q-0.76,1.06-1.51,2.12l-0.56.8-0.1.08-0.1-.12c-0.86-1-1.8-2.58-3.28-2.19s-2.23,2.32-3,3.45c-1.1,1.72-2.12,3.49-3.09,5.29a1.26,1.26,0,0,0,1.37,1.84l0.14,0a4.7,4.7,0,0,0,1.8,0,1.36,1.36,0,0,0,.31,0l18.49-.1A1.27,1.27,0,0,0,27.81,21.85ZM9.72,17.59a15.1,15.1,0,0,1,1.06-1.73C11.93,17.14,13.21,19.44,15,18a16.44,16.44,0,0,0,2.31-3.21l1.14-1.59c0.14-.19.48-0.81,0.81-1.28,0.43,0.71.8,1.52,1.17,2.17l1.74,3,2.37,4.1-16.19.08a1.41,1.41,0,0,0-.56-0.15H7.58q0.54-1,1.11-1.89T9.72,17.59Z"/><path class="cls-1" d="M6.86,6.15c-3,0-3,4.65,0,4.65S9.86,6.15,6.86,6.15Z"/></svg>