<svg id="Layer_1" data-name="Layer 1" xmlns="http://www.w3.org/2000/svg" viewBox="0 0 88.22 77.27"><defs><style>.cls-1{fill:#5b6053;}.cls-2{fill:none;stroke:#5b6053;stroke-miterlimit:10;}</style></defs><title>image</title><path class="cls-1" d="M77.75,61.07L60.21,30.76c-1.65-2.85-3.51-7.09-7.58-5.61-3.51,1.27-6.13,6.79-8.2,9.66q-2.14,3-4.23,5.93L38.63,43a2.54,2.54,0,0,0-.27.23l-0.29-.32c-2.39-2.68-5-7.21-9.18-6.12-3.95,1-6.25,6.48-8.27,9.64-3.08,4.82-5.94,9.76-8.64,14.8a3.54,3.54,0,0,0,3.83,5.16,3.63,3.63,0,0,0,.39.09,13.15,13.15,0,0,0,5-.08,3.8,3.8,0,0,0,.86.1l51.68-.27C76.36,66.8,79.47,64.06,77.75,61.07ZM27.16,49.19a42.22,42.22,0,0,1,3-4.82c3.23,3.56,6.81,10,11.78,5.9,2.64-2.17,4.49-6.22,6.44-9q1.59-2.22,3.2-4.43c0.4-.54,1.35-2.27,2.27-3.58,1.22,2,2.23,4.26,3.27,6.06L62,47.77,68.6,59.24l-45.26.24a3.93,3.93,0,0,0-1.55-.41h-0.6q1.51-2.66,3.1-5.28Q25.69,51.46,27.16,49.19Z"/><path class="cls-1" d="M18.86,17.19c-8,0-8,13,0,13C27.86,30.19,27.86,17.19,18.86,17.19Z"/><rect class="cls-2" x="3.24" y="3.04" width="80.21" height="68.65"/><path class="cls-1" d="M87.74,70.42c0-.08,0-0.15,0-0.24A498.84,498.84,0,0,0,85.21,5a3.83,3.83,0,0,0-3.47-4A4.72,4.72,0,0,0,80.11,1l-75-1A3.77,3.77,0,0,0,1.28,4.37s0,0.05,0,.09Q-0.42,37,.14,69.69a4.1,4.1,0,0,0,.33,1.55A4.06,4.06,0,0,0,4.12,76.7q40.12,1.2,80.26-.13C87.85,76.46,89,72.75,87.74,70.42ZM8.13,68.81q-0.5-30.39,1-60.76L77.6,8.93a499,499,0,0,1,2.2,59.78Q44,69.77,8.13,68.81Z"/></svg>