<svg id="Layer_1" data-name="Layer 1" xmlns="http://www.w3.org/2000/svg" viewBox="0 0 20.96 20.73"><defs><style>.cls-1{fill:#97a571;}</style></defs><title>label</title><path class="cls-1" d="M20.52,11.95a0.43,0.43,0,0,0-.15-0.27,99.42,99.42,0,0,1-10-10.2A0.46,0.46,0,0,0,10,.94,66,66,0,0,1,1.22.53,0.48,0.48,0,0,0,.38.85C0.69,4,1.71,7.16,1.43,10.4a0.4,0.4,0,0,0,.23.42,0.51,0.51,0,0,0,.1.12c0.91,0.68,1.58,1.57,2.43,2.3S5.82,14.39,6.58,15c1.8,1.56,3.41,3.41,5.07,5.11a0.45,0.45,0,0,0,.31.14,0.45,0.45,0,0,0,.56-0.09q3.89-3.92,7.91-7.71A0.44,0.44,0,0,0,20.52,11.95ZM12.12,19.2a57.81,57.81,0,0,0-5.34-5.28c-1.49-1.18-2.83-2.56-4.33-3.71,0.2-2.94-.61-5.76-1-8.65a66.1,66.1,0,0,0,8.05.38,0.47,0.47,0,0,0,0,.06,99.48,99.48,0,0,0,9.83,10.12Q15.69,15.6,12.12,19.2Z"/><path class="cls-1" d="M12.18,20.73a0.84,0.84,0,0,1-.33-0.07,0.83,0.83,0,0,1-.48-0.25c-0.5-.51-1-1-1.49-1.56a49.78,49.78,0,0,0-3.56-3.53C6,15,5.56,14.73,5.17,14.45S4.34,13.86,4,13.52s-0.72-.68-1-1a11.38,11.38,0,0,0-1.36-1.27,0.77,0.77,0,0,1-.13-0.13,0.78,0.78,0,0,1-.35-0.74A23.7,23.7,0,0,0,.51,4.27C0.32,3.17.12,2,0,.89A0.77,0.77,0,0,1,.43.09a0.94,0.94,0,0,1,.94.08A65.69,65.69,0,0,0,9.94.56a0.81,0.81,0,0,1,.63.26,0.88,0.88,0,0,1,.22.53A99.49,99.49,0,0,0,20.63,11.4a0.79,0.79,0,0,1,.25.43,0.81,0.81,0,0,1-.2.94c-2.66,2.51-5.32,5.1-7.91,7.7A0.84,0.84,0,0,1,12.18,20.73ZM0.82,0.75l-0.07,0c0.11,1.16.31,2.28,0.5,3.37a24.26,24.26,0,0,1,.55,6.29l0.08,0L2,10.6A13.74,13.74,0,0,1,3.45,12c0.32,0.33.65,0.67,1,1s0.75,0.59,1.16.89,0.83,0.59,1.22.93a50.7,50.7,0,0,1,3.62,3.58c0.49,0.52,1,1,1.48,1.55H12L12.13,20a0.08,0.08,0,0,0,.11,0c2.59-2.61,5.25-5.2,7.92-7.72a0.07,0.07,0,0,0,0-.1l0-.12a0.06,0.06,0,0,0,0,0,100.22,100.22,0,0,1-10-10.23L10,1.61l0-.16a0.17,0.17,0,0,0,0-.12A70,70,0,0,1,1.18.9H1.05L1,0.8A0.21,0.21,0,0,0,.82.75Zm11.29,19-0.27-.27L10.6,18.14a39.23,39.23,0,0,0-4.06-3.93c-0.71-.56-1.38-1.17-2-1.76s-1.5-1.35-2.29-2l-0.16-.12v-0.2a24.36,24.36,0,0,0-.55-5.94C1.36,3.37,1.21,2.49,1.09,1.6L1,1.13,1.51,1.18a66,66,0,0,0,8,.38H9.72L9.83,1.74a98.15,98.15,0,0,0,9.79,10.1l0.3,0.27-0.3.28c-2.45,2.31-4.89,4.69-7.25,7.07ZM2.83,10C3.58,10.62,4.3,11.27,5,11.89s1.32,1.18,2,1.73a39.76,39.76,0,0,1,4.14,4l1,1c2.19-2.2,4.45-4.39,6.7-6.53a100.41,100.41,0,0,1-9.5-9.81A66.7,66.7,0,0,1,1.9,2C2,2.69,2.13,3.4,2.25,4.11A26.1,26.1,0,0,1,2.83,10Z"/><path class="cls-1" d="M5.92,3A2.69,2.69,0,0,0,3.7,5.9C3.92,7.36,5.65,8.13,7,8a0.52,0.52,0,0,0,.22-0.07C9.69,7.86,9.16,2.28,5.92,3ZM7.14,7a0.5,0.5,0,0,0-.29,0,2.36,2.36,0,0,1-2-.81,1.43,1.43,0,0,1,.6-2,1.39,1.39,0,0,1,2,.18C7.69,4.83,8.18,7.13,7.14,7Z"/><path class="cls-1" d="M6.71,8.4A3.31,3.31,0,0,1,3.33,6,3.07,3.07,0,0,1,5.84,2.64h0a2.44,2.44,0,0,1,2.54.85,3.75,3.75,0,0,1,.49,3.68A1.83,1.83,0,0,1,7.32,8.31,0.9,0.9,0,0,1,7,8.39H6.71ZM6,3.37A2.32,2.32,0,0,0,4.07,5.84C4.25,7,5.72,7.75,7,7.64L7,7.59l0.16,0a1.08,1.08,0,0,0,1-.71A3,3,0,0,0,7.79,4,1.69,1.69,0,0,0,6,3.37H6Zm0.75,4a2.66,2.66,0,0,1-2.21-1,1.54,1.54,0,0,1-.22-1.2,2.08,2.08,0,0,1,.93-1.28A2.2,2.2,0,0,1,6.88,3.6a1.41,1.41,0,0,1,.89.65A3.56,3.56,0,0,1,7.93,7a0.81,0.81,0,0,1-.85.36h0L7,7.35l-0.14,0H6.75ZM6.5,4.3a1.68,1.68,0,0,0-.85.27,1.33,1.33,0,0,0-.6.8A0.79,0.79,0,0,0,5.17,6a2,2,0,0,0,1.58.64h0a0.86,0.86,0,0,1,.42,0h0c0.08,0,.09,0,0.11,0a3.1,3.1,0,0,0-.18-1.93,0.65,0.65,0,0,0-.42-0.31Z"/></svg>