<svg id="lead-sheet" viewBox="0 0 33.46 33.46"><defs><style>.cls-1{fill:none;}.cls-2{clip-path:url(#clip-path);}.cls-3{fill:#7a6341;}</style><clipPath id="clip-path"><rect class="cls-1" x="-114.57" y="-15.41" width="75" height="75"/></clipPath></defs><title>lead-sheet</title><g class="cls-2"><image width="313" height="313" transform="translate(-174.72 -64.29) scale(0.74)" xlink:href="profile_pics/matt.jpg"/></g><path class="cls-3" d="M30.64,0H2.78A2.78,2.78,0,0,0,0,2.78V30.68a2.78,2.78,0,0,0,2.78,2.78H30.68a2.78,2.78,0,0,0,2.78-2.78V2.74A2.8,2.8,0,0,0,30.64,0Zm0.84,29.51a1.93,1.93,0,0,1-1.94,1.94H4A1.93,1.93,0,0,1,2,29.51V3.91A1.93,1.93,0,0,1,4,2H29.51a1.93,1.93,0,0,1,1.94,1.94V29.51h0Z M25.67,10.17H7.92a0.76,0.76,0,0,1-.75-0.75V8.67a0.76,0.76,0,0,1,.75-0.75H25.67a0.76,0.76,0,0,1,.75.75V9.42A0.71,0.71,0,0,1,25.67,10.17Z M25.64,17.84H7.85a0.76,0.76,0,0,1-.75-0.75V16.34a0.76,0.76,0,0,1,.75-0.75H25.61a0.76,0.76,0,0,1,.75.75v0.75A0.72,0.72,0,0,1,25.64,17.84Z M25.61,14H7.85a0.76,0.76,0,0,1-.75-0.75V12.52a0.76,0.76,0,0,1,.75-0.75H25.61a0.76,0.76,0,0,1,.75.75v0.75A0.74,0.74,0,0,1,25.61,14Z M25.64,21.7H7.88a0.76,0.76,0,0,1-.75-0.75V20.19a0.76,0.76,0,0,1,.75-0.75H25.64a0.76,0.76,0,0,1,.75.75v0.75A0.72,0.72,0,0,1,25.64,21.7Z M25.58,25.52H7.82a0.76,0.76,0,0,1-.75-0.75V24a0.76,0.76,0,0,1,.75-0.75H25.58a0.76,0.76,0,0,1,.75.75v0.75A0.72,0.72,0,0,1,25.58,25.52Z"/></svg>