<svg id="Layer_1" data-name="Layer 1" xmlns="http://www.w3.org/2000/svg" viewBox="0 0 63.8 64.6"><defs><style>.cls-1{fill:#5b6053;}.cls-2{fill:#353a2d;}.cls-3{fill:#ccdbd9;}</style></defs><title>logo</title><path class="cls-1" d="M15.64,22C15.79,27,17,43.32,31,46.76c1.88,0.3,5.81,1.32,7.49,1.49,2.4,2.35,3.94,4.87,7.16,6.61,5.31,2.87,9,3.29,10,2.61s0.12-1.31-2-3.8A21.23,21.23,0,0,1,50,47.16C60.24,45,64.2,37.63,63.77,25.49,62.72,7,51.71-.31,31.26,0,17.31,0.74,15.48,17.1,15.64,22Z"/><path class="cls-2" d="M32.51,6.85C12.06,6.53,1,13.88,0,32.33-0.44,44.47,3.53,51.8,13.74,54a21.23,21.23,0,0,1-3.64,6.52c-2.15,2.48-3,3.12-2,3.8s4.72,0.25,10-2.61c3.22-1.74,4.76-4.27,7.16-6.61,1.68-.17,5.6-1.19,7.49-1.49,14-3.44,15.22-19.79,15.37-24.72S46.46,7.58,32.51,6.85Z"/><path class="cls-3" d="M38.46,26.09c-3.94-1.62-8.86-4-13.27-3.89l-0.06-.51c-0.06-.59-0.36-5.34-1-4.87,0.71-.54,5,1.19,5.8,1.47A38.69,38.69,0,0,1,36,21c2.14,1.15,4-2.11,1.91-3.26-4-2.16-9.6-4.86-14.29-4.75-4.45.11-2.44,6.59-2.14,9.35C22,27.2,23.07,32.13,23.62,37,19,37,13.08,39.73,13.54,45c0.51,5.9,8.2,3.79,11.12,1.36,1.86-1.54,3.34-3.57,3.17-6.07-0.27-4.16-1.44-8.39-2-12.54-0.08-.58-0.15-1.16-0.22-1.74,3.89,0.11,8.42,2.35,11.83,3.74C39.7,30.66,40.68,27,38.46,26.09ZM21.85,43.77c-0.72.52-1.93,1.35-2.82,1.26q-1.75.61-1.23-1.65a6,6,0,0,1,1.92-1.78,6.45,6.45,0,0,1,4.09-.86A4.05,4.05,0,0,1,21.85,43.77Z"/></svg>