<svg id="Layer_1" data-name="Layer 1" xmlns="http://www.w3.org/2000/svg" viewBox="0 0 34.73 45.91"><defs><style>.cls-1{fill:#60634b;}</style></defs><title>note</title><path class="cls-1" d="M33.82,25.74a28.86,28.86,0,0,0-15.12-4.67,2.15,2.15,0,0,0-.38,0q-0.52-1.86-1.08-3.71a23.7,23.7,0,0,1,9.16,2.44c2.28,1.13,4.28-2.29,2-3.43a28.27,28.27,0,0,0-13.65-3,1.87,1.87,0,0,0-1.47.72,1.71,1.71,0,0,0-.6,2c1.24,3.84,2.34,7.72,3.26,11.65a42.58,42.58,0,0,1,1.16,5.38c0.17,1.7-.48,2.08-1.51,3.43-1.34,1.74-3.74,4.46-2.75,6.83,0.89,2.12,3.67,2.88,5.73,2.43A5.65,5.65,0,0,0,22.77,41c0.32-1.81.43-5-1.24-6.24l-0.29-.19a4.29,4.29,0,0,0,0-.47c-0.12-3-1.17-6.13-1.88-9a24.84,24.84,0,0,1,12.45,4.09C34,30.56,35.95,27.12,33.82,25.74Z"/><path class="cls-1" d="M17,8.85A11.48,11.48,0,0,0,7,0,1.65,1.65,0,0,0,5.1,1.87a1.73,1.73,0,0,0-.56,1.46L5,10.9c0.07,1.16,1.14,6.56.43,7.57-0.45.64-2.53,1.19-3.22,1.8A6.53,6.53,0,0,0,.07,23.51,2.79,2.79,0,0,0,2.75,27c2.85,0.21,5-2.6,6.08-4.92a2.05,2.05,0,0,0,.1-1.44,4.66,4.66,0,0,0,.48-1.83C9.85,14.26,9,9.12,8.62,4.46a7.64,7.64,0,0,1,4.56,5.46C13.73,12.44,17.59,11.37,17,8.85Z"/></svg>