<svg id="Layer_1" data-name="Layer 1" xmlns="http://www.w3.org/2000/svg" viewBox="0 0 21.9 32.29"><defs><style>.cls-1{fill:#838c5a;}</style></defs><title>note</title><path class="cls-1" d="M21.72,10.94c-2.08-4.81-5.38-10-10.89-10a2.06,2.06,0,0,0-3.77,1,95.71,95.71,0,0,0,.52,15.33c0.08,0.64.73,4.63,0.52,4.83,0,0-3.1.55-3.29,0.63C1.59,23.94-2.49,29.28,2,31.8c3.54,2,10.62-2.5,9.37-6.71l-0.07-.2a4.49,4.49,0,0,0,.91-2.34c0.38-2.92-.73-6.17-1-9.12S10.93,7.72,11,4.86c3.89,0.07,6,5,7.29,8.09C19.28,15.31,22.73,13.28,21.72,10.94Z"/></svg>