<svg id="pencil" width="20" viewBox="0 0 38.97 38.97"><path class="pencil" d="M38.44,6.28L32.69,0.53a1.81,1.81,0,0,0-2.56,0L4.83,25.83a1.79,1.79,0,0,0-.39.57l-4.3,10a1.82,1.82,0,0,0,2.39,2.38l10-4.3a1.77,1.77,0,0,0,.57-0.39L33.24,14l5.21-5.2A1.82,1.82,0,0,0,38.44,6.28Zm-27.61,25L5.26,33.7l2.38-5.56,18-18,3.18,3.18ZM30.76,11.39h0l-0.1.09,0.09-.09L27.58,8.21l-0.09.09,0.09-.1h0l3.83-3.83,3.18,3.18Z M27.58,8.21l-0.09.09,0.09-.1h0Z M30.77,11.39l-0.1.09,0.09-.09h0Z M27.58,8.21l-0.09.09,0.09-.1h0Z M30.77,11.39l-0.1.09,0.09-.09h0Z"/></svg>