<svg id="Layer_1" data-name="Layer 1" xmlns="http://www.w3.org/2000/svg" viewBox="0 0 48.83 40.18"><defs><style>.cls-1{fill:#515b3b;}</style></defs><title>ppl</title><path class="cls-1" d="M33.24,7a1.41,1.41,0,0,1,.08-0.19,6.76,6.76,0,0,0,.93-4.46A16.2,16.2,0,0,0,33.58,0a6.72,6.72,0,0,1-5.21,2.89A10.51,10.51,0,0,1,26,2.69c-2.48,0-5-.28-6.41.17-2.87.93-3.68,3.19-3.41,6a1.52,1.52,0,0,0,1.09,1.34c-0.72,2.54-.68,5.71.78,7.75,1.7,2.37,5.42,4.43,8.38,4,5.88-.85,7.68-9,5.31-13.84A10.14,10.14,0,0,0,33.24,7ZM25.7,19c-1.52.09-4.14-1.41-5.09-2.61-1.09-1.37-1-4.29-.32-6A19.8,19.8,0,0,0,29,9.41C30.61,12.51,29.6,18.81,25.7,19Z"/><path class="cls-1" d="M37.67,35.06a19.1,19.1,0,0,0-5.24-13.74,1.32,1.32,0,0,0-1.11-.46,1.48,1.48,0,0,0-1.4.66c-1.89,2.73-6.87,1.64-9.17.15a1.31,1.31,0,0,0-1.84.32,1.67,1.67,0,0,0-.19.26c-1.09,1.8-2.83,3.05-3.6,5.05a18.17,18.17,0,0,0-.75,6.83,1.6,1.6,0,0,0,.07.42,1.35,1.35,0,0,0,.72,1C18.55,37.4,22,39.84,26,40.14s7.8-1.43,11-3.72a1.5,1.5,0,0,0,.65-1.12A1.64,1.64,0,0,0,37.67,35.06ZM25.56,37c-2.92-.42-5.66-2.24-8.22-3.73A11.61,11.61,0,0,1,18.1,28a16.4,16.4,0,0,1,2.35-3.05c3.32,1.6,7.84,1.82,10.72-.48a15.93,15.93,0,0,1,3.49,9.93C31.94,36.2,28.93,37.52,25.56,37Z"/><path class="cls-1" d="M10.26,0.89a17.91,17.91,0,0,0-3.7,1.8A7.93,7.93,0,0,0,5.13,4.28a6.49,6.49,0,0,0-.29,2.58c0.3,3.13,3.72,4.49,6.5,4,3-.5,4.57-2.74,4.66-5.69C16.11,1.89,13,1,10.26.89Zm1.25,6.87c-1,.35-2.7.42-3.42-0.52S8,3.9,9.34,3.86a1.67,1.67,0,0,0,.31,0,1.58,1.58,0,0,0,.43.07c1,0,2.93,0,2.92,1.31A2.49,2.49,0,0,1,11.52,7.76Z"/><path class="cls-1" d="M17.5,20a2.33,2.33,0,0,1-.31-0.82,1.6,1.6,0,0,0-.14-0.35,1.59,1.59,0,0,0-.15-0.42,17.61,17.61,0,0,1-2-6.14,1.14,1.14,0,0,0-.88-1,1.15,1.15,0,0,0-1.39.12c-1.12.86-2,1.59-3.52,1.09A14.24,14.24,0,0,1,6.45,11a1.59,1.59,0,0,0-2.58-.9c-1.8,1.58-2.19,4.18-2.74,6.42s-1.65,5.94-.85,8.2c0.63,1.79,2.39,1.92,4,2.61,2.51,1.06,4.64,2.78,7.47,2.58a1.48,1.48,0,0,0,1.24-.8,1.54,1.54,0,0,0,.34-1.24c-0.4-2.66,2.09-4.62,3.92-6.09A1.52,1.52,0,0,0,17.5,20Zm-7.1,6.76c-2.49-.61-6.94-2.46-7.32-3.46-0.49-1.28.49-4,.8-5.35A24,24,0,0,1,5,13.69,12.38,12.38,0,0,0,9.46,15.6a4.9,4.9,0,0,0,3-.55,20.25,20.25,0,0,0,1.87,4.81s0,0.07,0,.11,0.08,0.23.11,0.34C12.36,22.08,10.68,24.12,10.4,26.74Z"/><path class="cls-1" d="M44.32,1.09c-2.68-1-5.65-1-7.18,1.47a1.55,1.55,0,0,0-.39.43c-1.78,2.86-2.13,6.5,1.44,8a5.77,5.77,0,0,0,7.38-2.7C46.68,6.11,47.14,2.1,44.32,1.09Zm-1,3.62a9.1,9.1,0,0,1-.28,1.77,2.82,2.82,0,0,1-2.86,2C38.07,8.32,38.28,6.58,39,5.14a1.37,1.37,0,0,0,.47-0.56c0.7-1.47,1.81-1.18,3.22-.83C43.5,4,43.48,3.89,43.36,4.71Z"/><path class="cls-1" d="M48.82,26.17c-0.25-4.56-2.18-8.65-3.3-13a1.46,1.46,0,0,0-2.38-.72c-1,.61-1.69,1.29-3,1.11a6.08,6.08,0,0,1-3.05-1.37,1.57,1.57,0,0,0-2.07,0,1.21,1.21,0,0,0-.64,1.26,8.39,8.39,0,0,1-1,4.87,1.62,1.62,0,0,0-.14.38,1.38,1.38,0,0,0,.31,1.57,18.19,18.19,0,0,1,4.57,8,1.36,1.36,0,0,0,.85,1,1.58,1.58,0,0,0,.66.22c2.64,0.28,6.35.1,8.37-1.94A1.27,1.27,0,0,0,48.82,26.17Zm-8,.34A21.31,21.31,0,0,0,36.46,19a11.42,11.42,0,0,0,.89-3.18,8.57,8.57,0,0,0,2.4.71,5.28,5.28,0,0,0,3.44-.64c1,3.19,2.25,6.31,2.57,9.64C44.49,26.5,42.46,26.61,40.77,26.51Z"/></svg>