<svg id="Layer_1" data-name="Layer 1" xmlns="http://www.w3.org/2000/svg" xmlns:xlink="http://www.w3.org/1999/xlink" viewBox="0 0 633 380.41"><defs><style>.cls-1{fill:none;}.cls-2{fill:#5b6053;}.cls-3{fill:#818974;}.cls-4{clip-path:url(#clip-path);}.cls-5{fill:#8bbc2e;}</style><clipPath id="clip-path"><rect class="cls-1" x="369.77" y="121.83" width="81.98" height="90"/></clipPath></defs><title>ppl</title><path class="cls-2" d="M222.79,60.69c-0.09-1.19-1.5-2.41-2.67-1.53a71.21,71.21,0,0,0-6.31,5.3c-0.15-2.47-.7-5-2.64-5.71s-5,.11-6.92.25l-8.37.62c-2.79.21-5.58,0.41-8.37,0.64-1.37.11-3,.06-4.14,1s-1.2,2.2-1.38,3.51a68.46,68.46,0,0,0-.33,9.12q0,4.22.26,8.42c0.11,1.74-.15,4.54,1.16,6,1,1.14,2.42,1.08,3.91,1.13,2.65,0.09,5.32.06,8,0,4.75-.06,9.82.18,14.5-0.72,4-.77,3.78-4,3.81-7.43a21.11,21.11,0,0,1,7.53,4.75,1.8,1.8,0,0,0,3-1.26Q223.72,72.73,222.79,60.69ZM209.64,85.08c-0.62.81-4.33,0.5-5.38,0.55q-4.65.22-9.3,0.27-2.66,0-5.32,0c-2.7,0-3.46-.13-4.13-2.88-0.73-3-.33-6.76-0.31-9.83,0-2.07-.83-7.76.9-9.29,0.74-.65,4.55-0.35,5.58-0.43l5.58-.42,9.77-.72c2.64-.19,2.63-1.13,3,1.56,0.19,1.58.28,3.17,0.33,4.76a1.8,1.8,0,0,0,3,1.26,65.8,65.8,0,0,1,6.11-5.78q0.56,8.41.73,16.83a24.7,24.7,0,0,0-8.48-3.86,1.83,1.83,0,0,0-2,2.73c0,0.06,0,.11,0,0.18C209.71,80.9,210.09,84.48,209.64,85.08Z"/><path class="cls-2" d="M202.55,73.4a58.1,58.1,0,0,0-6.72-4,1.88,1.88,0,0,0-2.66,2v0a56,56,0,0,0,.59,8.8,1.78,1.78,0,0,0,2.61,1.06,62.23,62.23,0,0,0,6.53-5.18A1.8,1.8,0,0,0,202.55,73.4Zm-3.83,1.74q-0.9.75-1.82,1.46-0.11-1.32-.15-2.64Q197.74,74.54,198.71,75.14Z"/><path class="cls-2" d="M128.33,87.27c-1.48-1.47-3-2.94-4.36-4.49-0.66-.73-1.31-1.48-1.92-2.25-0.32-.4-0.63-0.82-0.93-1.24l-0.37-.54-0.06-.09c0.49-.43,1-0.81,1.5-1.24q1.14-1,2.21-2.12a50.25,50.25,0,0,0,4-4.74,1.65,1.65,0,0,0-.59-2.25,1.68,1.68,0,0,0-2.25.59,44,44,0,0,1-4.43,5q-1.21,1.18-2.51,2.27c-0.91.76-1.8,1.58-1.46,2.91a8.61,8.61,0,0,0,1.69,2.68q1.07,1.41,2.23,2.75c1.56,1.78,3.23,3.44,4.91,5.1A1.64,1.64,0,0,0,128.33,87.27Z"/><path class="cls-2" d="M142,69.71a128.16,128.16,0,0,1-9.74,16.62,1.66,1.66,0,0,0,.59,2.25,1.68,1.68,0,0,0,2.25-.59,128.17,128.17,0,0,0,9.74-16.62C145.74,69.48,142.91,67.81,142,69.71Z"/><path class="cls-2" d="M158,77.16l-8.34-9c-1.44-1.56-3.76.77-2.32,2.32l7.34,8q-3.71,4.6-7.23,9.36A1.65,1.65,0,0,0,148,90a1.68,1.68,0,0,0,2.25-.59Q154,84.36,158,79.49A1.69,1.69,0,0,0,158,77.16Z"/><path class="cls-2" d="M381.9,44.7c-1.1-2.47-4.83-2.92-7.16-3.27-3.23-.49-4,0.4-5.37,3.3-5,10.32-9.39,21-14.08,31.43a2,2,0,0,0,0,1.69c-0.49,4-1.19,7.86-2.06,11.75a2,2,0,0,0,2.94,2.26c2.14-1,3.6-2.79,5.15-4.54A12.68,12.68,0,0,1,363.92,85a5.29,5.29,0,0,0,2.29-2,2.09,2.09,0,0,0,.22-0.68c2.7-2.2,4.49-8.3,5.68-11.05,2-4.59,3.88-9.2,5.82-13.8C379.24,54.28,383.49,48.26,381.9,44.7Zm-6.53,1c1.63,0.18,2.16.32,2.5,1.65a4.27,4.27,0,0,1-.68,2.2,34.45,34.45,0,0,0-4.28-2.88C374.12,44.91,373.14,45.41,375.37,45.65ZM360.86,82.21a15.62,15.62,0,0,0-2.16,2l-0.46.52c0.23-1.33.45-2.67,0.65-4,0.69,0.39,1.45.86,2.25,1.28Zm7.07-11.37c-1,2.35-2.24,5.75-3.94,8-1.33-.51-2.75-1.38-3.89-1.93a2.12,2.12,0,0,0-.68-0.19l7.14-15.95L370.48,52c0.23-.51.46-1.12,0.7-1.75a30,30,0,0,1,4.21,3l-3.21,7.63C370.77,64.17,369.4,67.52,367.93,70.83Z"/><path d="M299.15,37.4c-2,0-3.5,1.9-3.5,4.11v1.21h-6.44c-2,0-3.66,1.81-3.94,4l-0.42,3.16a0.68,0.68,0,0,0,.65.74h0.74l4.49,35.17c0.28,2.18,1.94,4,3.94,4h19.57c2,0,3.66-1.83,4-4l4.49-35.17h0.72a0.7,0.7,0,0,0,.67-0.74l-0.42-3.16a4.34,4.34,0,0,0-4-4H313.3V41.51c0-2.21-1.51-4.11-3.52-4.11H299.15Zm0,1.32h10.63a2.53,2.53,0,0,1,2.2,2.79v1.21H297V41.51a2.53,2.53,0,0,1,2.2-2.79h0ZM289.22,44h30.5a3.12,3.12,0,0,1,2.64,2.88l0.32,2.44H286.28l0.3-2.44A3.14,3.14,0,0,1,289.22,44h0Zm-1.64,6.62h33.81l-4.49,35c-0.21,1.6-1.48,2.88-2.64,2.88H294.68c-1.16,0-2.43-1.28-2.64-2.88l-4.47-35h0Zm7.34,4.57a0.08,0.08,0,0,0-.07,0,0.64,0.64,0,0,0-.51.7l2.78,27a0.67,0.67,0,0,0,.72.58,0.68,0.68,0,0,0,.6-0.7l-2.8-27a0.67,0.67,0,0,0-.72-0.6h0Zm19,0a0.09,0.09,0,0,0-.07,0,0.64,0.64,0,0,0-.51.58l-2.8,27a0.68,0.68,0,0,0,.6.7,0.64,0.64,0,0,0,.69-0.58l2.8-27a0.68,0.68,0,0,0-.72-0.72h0Zm-9.49.09-0.07,0a0.65,0.65,0,0,0-.51.65V83.16a0.67,0.67,0,0,0,.65.67,0.68,0.68,0,0,0,.65-0.67V56a0.68,0.68,0,0,0-.72-0.67h0Z"/><path class="cls-2" d="M439.56,46.49a14.13,14.13,0,0,0-5.74-1.19c-1.08-4.77-5.1-5.11-9.64-5-5.3.14-9.38-.45-11.42,4.91a34.45,34.45,0,0,0-5.66.59c-3.85.78-3.86,3.57-5.83,6.42a2.17,2.17,0,0,0-.22.39A2.1,2.1,0,0,0,401.2,56a4.6,4.6,0,0,0,1.26.57,2.06,2.06,0,0,0,0,.82c2.67,10.44,4.23,20.9,5.83,31.53,1.18,7.83,9.24,6.31,15.53,6.7,3,0.18,7.85,1.56,10.38-.57,2.31-1.94,2.38-6.24,2.91-8.95a278.89,278.89,0,0,0,4.09-29.35,2.23,2.23,0,0,0,.49-0.07,1.68,1.68,0,0,0,1.83-1.91C443.25,51.62,442.66,48.05,439.56,46.49Zm-16-2.16c1.66,0,5.07-.78,6.13,1-1.62.07-3.17,0.16-4.5,0.14-2.45,0-5.09-.18-7.74-0.25C419,44,421.48,44.38,423.56,44.33ZM405.36,53a6.09,6.09,0,0,1,.61-1.11c2-2.64,2.12-1.84,4.38-2.3,3-.62,6.79-0.17,9.89-0.17s5.94,0,8.91.1c3.74,0.09,8.39-.51,9.93,3.18l-17.62,0h-8.87C411.16,52.76,407.76,53.21,405.36,53Zm29,26.27c-0.57,3.31-.82,7.28-2,10.44-0.93,2.43-1.48,2.27-4,2.12L423,91.53c-2.79-.17-9,0.6-10.57-2.21-1.35-2.35-1-7.87-1.42-10.67-1.13-7.36-2.66-14.64-4.5-21.86,0.4,0,.8,0,1.18,0H418.5l18.73,0C436.57,64.3,435.65,71.83,434.35,79.31Z"/><path class="cls-2" d="M417.73,86.06q-1.33-12.93-2.95-25.82c-0.32-2.52-4.32-2.55-4,0q1.62,12.9,2.95,25.82C414,88.59,418,88.62,417.73,86.06Z"/><path class="cls-2" d="M424.22,60.58c-0.12-2.56-4.12-2.58-4,0q0.59,12.42,0,24.82c-0.11,2.57,3.89,2.57,4,0Q424.81,73,424.22,60.58Z"/><path class="cls-2" d="M429.5,60.74c-0.5,8.64-1.71,17.22-2.8,25.8-0.32,2.55,3.68,2.52,4,0,1.09-8.58,2.3-17.16,2.8-25.8C433.65,58.17,429.65,58.18,429.5,60.74Z"/><path class="cls-3" d="M320,146.14c-5.47.39-15.5,2.71-16.61,9.17-0.61,3.54-.35,8.93,1,12.3,0.93,2.27,3.35,3.53,5.68,4.27a5.44,5.44,0,0,1-2.56,2.55,1.52,1.52,0,0,0-.3,2.36c1.88,2.2,5.55,1.39,7.82.39a9.63,9.63,0,0,0,5.33-4.78c6.53,1.13,9-7.6,9.42-12.68C330.41,152.31,328.67,145.52,320,146.14Zm-0.33,23a1.22,1.22,0,0,0-1.27.18,1.15,1.15,0,0,0-.41.56,1.76,1.76,0,0,0-.13.53,5.23,5.23,0,0,1-3,3.57,11,11,0,0,1-3.44,1.28,8.36,8.36,0,0,0,2.06-4A1.57,1.57,0,0,0,312,169.3c-5.4-1.48-5.57-5.8-5.7-10.77-0.15-5.56,4.69-7.28,9.23-8.51,1.83-.5,4.23-1.19,6.15-1,4.54,0.56,5.09,3.16,5.26,6.66C327.1,159.71,326.48,171.64,319.68,169.1Z"/><g class="cls-4"><path d="M369.77,211.83l24.36-9v-72l-24.36-9v90Zm70.74-72.13a6.3,6.3,0,1,0-7.21,5.24,6.3,6.3,0,0,0,7.21-5.24m11.23,31.47a3,3,0,0,0-1.11-2.07l-8.51-6.83-4.42-11.89a2.85,2.85,0,0,0-.42-0.74,6.55,6.55,0,0,0-3.71-2.92,6.62,6.62,0,0,0-4,0,3.59,3.59,0,0,0-.52.16L416,152.23a3,3,0,0,0-1.2.88L408,161.51a3,3,0,1,0,4.67,3.8l6.35-7.8,4.9-2L414.77,185l-9.32,9.43a4.22,4.22,0,0,0,6,5.92l9.87-10a4.17,4.17,0,0,0,.76-1.06,4.33,4.33,0,0,0,.27-0.56l3.11-9.89,8.37,8.42V201.8a4.22,4.22,0,0,0,8.43,0V185.74c0-.09,0-0.17,0-0.26h0a4.2,4.2,0,0,0-.86-2.18l-9.2-9.48,3.51-11.48,1,2.8a3,3,0,0,0,.94,1.3l9.16,7.35a3,3,0,0,0,4.88-2.62"/></g><path class="cls-3" d="M556,81a6.1,6.1,0,0,0-2.48.5,4.09,4.09,0,0,0-5.41-2.6c-1.59.59-2.16,2.3-2.71,3.76l-0.46,1.24a22.46,22.46,0,0,1-3.09,5.26,8.1,8.1,0,0,1-2.61,1.6c-0.4.15-.54,0.88,0,1a6.21,6.21,0,0,0,5.18-1.47,11.2,11.2,0,0,0,2.09-2.46,11.5,11.5,0,0,1,1.43-2.21,3.68,3.68,0,0,1,2.09-.84l0.47,0C549,88.65,550.85,94,556,94,565,94,565,81,556,81Z"/><path class="cls-3" d="M572.85,118.25c-3.48-2.54-7.37-4.54-9.16-8.54s-3.06-8.37-4.57-12.5a2.63,2.63,0,0,0-3.49-1.51,2.1,2.1,0,0,0-1.73,0c-4.68,1.78-10.16,3.09-14.51,5.56-3.33,1.89-5.39,6.06-7.23,9.26-1.61,2.79,2.71,5.31,4.32,2.52,1.92-3.34,3.54-6.52,7.15-8.11,0.46-.2.93-0.38,1.39-0.58l-0.15.6c-1.54,3.54-3.37,6.74-3.9,10.65,0,0.14,0,.27,0,0.41s0,0.11,0,.16,0,0.41,0,.62,0,0.22,0,.33,0,0.46,0,.69c0,0.68,0,1.35,0,2,0.22,4.89,1.61,9.68,1.7,14.61a2.53,2.53,0,0,0,.26,1.09c-1.74,4.15-5.36,8.22-7.79,11.89-1.78,2.69,2.55,5.2,4.32,2.52,2.82-4.26,7.64-9.37,9-14.31,1-3.91.91-8.54,0.84-12.9,2.58,5.13,6.26,9.43,9,14.47,0.9,3.38,1.21,7,1.78,10.4,0.53,3.17,5.35,1.82,4.82-1.33-0.78-4.66-1.13-9.68-3-14.06-1.69-4-4.23-7.63-6.4-11.33a2.71,2.71,0,0,0-.22-0.3,35,35,0,0,0,2.12-4.33c0.59-1.22,1.45-2.57,2-3.92,0.29,0.63.6,1.24,0.94,1.82,2.09,3.66,7,6,10.27,8.44C572.93,124.47,575.43,120.13,572.85,118.25Z"/><path class="cls-3" d="M523.4,81.53c-2.58-1.66-5.91-2.4-8.66-3.84a69.74,69.74,0,0,1-11-7.22c-1.55-1.23-4.39-.61-4.27,1.77,1.46,28.56.47,57.4,0.55,86a2.43,2.43,0,0,0,3,2.37,2.35,2.35,0,0,0,1.51-.71,115.91,115.91,0,0,1,15.14-12.62,2.45,2.45,0,0,0,2.29-2.09,2.57,2.57,0,0,0,.11-1.62q1.06-23.9,3.1-47.74C525.49,91.55,527.85,84.41,523.4,81.53Zm-7.3,2.36c1.13,0.51,2.89.81,3.79,1.58,1.28,1.11.92,1.91,0.84,3.65-0.18,3.84-.69,7.69-1,11.53Q518,121.8,517.05,143a123.22,123.22,0,0,0-12,9.54c0-25,.71-50.2-0.32-75.19A70.31,70.31,0,0,0,516.1,83.89Z"/><path class="cls-2" d="M171.85,248.63a5.19,5.19,0,0,0-1.33-1.81,4.29,4.29,0,0,0,.48-1.25,3.12,3.12,0,0,0,.43-3,2.5,2.5,0,0,0-2.26-2.12h0c-0.43-1-1.27-.37-0.9.2,0.21,0.32.42,0.42,0.61,0.75a3,3,0,0,1-.89,1.74,7.28,7.28,0,0,1-3.12,1.21c-2.73.26-5.82,0.23-6.76,1.27a1.69,1.69,0,0,0,.19,2.5,9,9,0,0,0-.83,7.95c1.54,3.92,7.43,5.45,11.1,3.79S173.34,252,171.85,248.63Zm-4.78,8.77c-2,.7-5.64-0.05-6.76-1.9a6,6,0,0,1,.29-5.83l0.29,0.12a8.23,8.23,0,0,0,7.55-.87,2.94,2.94,0,0,1,.73,1C170.06,252.05,169.54,256.53,167.07,257.4Z"/><path class="cls-2" d="M180.57,269.38a20,20,0,0,0-7.43-8,1.42,1.42,0,0,0-1.42,0c-2.66,1.49-8.48,1.78-11-.23a1.48,1.48,0,0,0-1.75-.08,1.3,1.3,0,0,0-1.47.63c-1.45,2.41-4,7-3.19,9.91,0.77,2.65,5.67,2.9,7.86,3.19a51.4,51.4,0,0,0,11.35.12c2.64-.25,5.18-0.94,6.57-3.37a1.46,1.46,0,0,0,.16-0.44A1.38,1.38,0,0,0,180.57,269.38Zm-8.79,2.81a61.22,61.22,0,0,1-7.2,0c-1.63-.11-6.9-0.18-7.41-2.24-0.17-.69.56-2.21,0.78-2.82a20.78,20.78,0,0,1,1.62-3.44c3.52,2.13,9,2.16,12.76.49a17.12,17.12,0,0,1,5.38,5.83l-0.06.08C176.5,272.14,173.85,272.09,171.79,272.2Z"/><path class="cls-5" d="M234.42,254.72c2.22-3.15.42-7-2.25-9.16a1.27,1.27,0,0,0-.32-0.24l-0.19-.15c-1.48-1.05-2.89,1.16-1.77,2.36,1.31,3.06-3,1.76-4.52,1.73a6.83,6.83,0,0,0-3.51.76,4.14,4.14,0,0,0-2.2,4.77,3.57,3.57,0,0,0,.66,1.12c-1,2.16-1.19,5.27.12,7.08a9.62,9.62,0,0,0,8.19,3.41c4.84-.71,7.16-6.87,5-10.8A5.59,5.59,0,0,0,234.42,254.72Zm-7.14,8.69c-1.65-.11-3.6-1-4.3-2.49a4.61,4.61,0,0,1-.05-3.45,9.84,9.84,0,0,0,3.69.2,12.21,12.21,0,0,0,4.49-.61C232.64,259.49,230.11,263.61,227.28,263.42Z"/><path class="cls-5" d="M260.61,271.8c-0.21-.55-1.07-1-1.24-1.49-0.45-1.3.17-1.6,0.05-2.77-0.25-2.42-1.93-3.22-1.55-5.75,0.27-1.82.57-1.78-.16-3.45-1-2.32-1.09.32-2.22-4.41a20,20,0,0,0-.33-2.08,6.07,6.07,0,0,0-4.8-3.82c-4.09-.8-8.1,1-9.25,5.1,0,0,0,.07,0,0.11a1.59,1.59,0,0,0-.29.47c-1.35,3.36-2.12,7.59,1.49,9.84a8.29,8.29,0,0,0,7.13.87,6.52,6.52,0,0,0,.34,1.08c-2.3,1.8-5.49.56-7.75-.71a1.4,1.4,0,0,0-1.25-.1,1.3,1.3,0,0,0-1,.48,19,19,0,0,0-3.26,5A9.61,9.61,0,0,0,234,266.4a1.4,1.4,0,0,0-2.24-.23,5.4,5.4,0,0,1-4.17,2.13c-2,.05-3.86-0.12-5.14-1.74a1.23,1.23,0,0,0-2-.05c-3.48,2.29-4.2,7.8-4.36,11.59a1.29,1.29,0,0,0,.94,1.37l0.15,0.06A32.81,32.81,0,0,0,230.37,281c1.28-.16,4.17-0.53,5.89-1.63a7.23,7.23,0,0,0,1.91,1.07c6.42,2.64,16.44,3.88,20.59-3,0.13-.08.27-0.14,0.39-0.23a1.55,1.55,0,0,0,.75-0.56A4.58,4.58,0,0,0,260.61,271.8Zm-10.87-11.44c-1.19,2-4.27,1.82-6,.52-2-1.48-.94-4.14-0.16-6.07A7.7,7.7,0,0,1,249,255C251.36,255.86,250.79,258.57,249.74,260.36Zm-15.26,17c-1,.4-7.47.82-8.32,0.78a32.54,32.54,0,0,1-6.94-1.16c0.16-2.35.62-5.57,2.16-7.29a9.77,9.77,0,0,0,6.25,1.63,7.44,7.44,0,0,0,5.1-1.88c1.6,2.13,2,5.18,1.74,7.76A1.55,1.55,0,0,0,234.48,277.35Zm7.17,1.23c-0.71-.25-3.39-0.9-3.64-1.46a10.8,10.8,0,0,1,.38-2.8,14,14,0,0,1,3.06-6.47c3,1.48,6.43,2.16,9.35.51a6.13,6.13,0,0,0-.25,1.5c0.11,2.32,2.38,4.18,1.59,6.56a1.28,1.28,0,0,0,.17,1.23,1.39,1.39,0,0,0,.93.77C249.81,280.2,245.11,279.77,241.65,278.58Z"/></svg>