<svg id="Layer_1" data-name="Layer 1" xmlns="http://www.w3.org/2000/svg" viewBox="0 0 512 392"><defs><style>.cls-1{fill:#515d3c;}.cls-2{fill:#f4f7ed;}</style></defs><title>ppl</title><rect class="cls-1" x="34.5" y="23.5" width="58.64" height="18.5"/><rect class="cls-1" x="95.89" y="23.5" width="78.76" height="18.5"/><rect class="cls-1" x="177.9" y="23.5" width="224.81" height="18.5"/><rect class="cls-1" x="405.71" y="23.5" width="58.64" height="18.5"/><rect class="cls-2" x="34.5" y="44.75" width="58.64" height="18.5"/><rect class="cls-2" x="95.89" y="44.75" width="78.76" height="18.5"/><rect class="cls-2" x="177.9" y="44.75" width="224.81" height="18.5"/><rect class="cls-2" x="405.71" y="44.75" width="58.64" height="18.5"/><rect class="cls-2" x="34.5" y="66" width="58.64" height="18.5"/><rect class="cls-2" x="95.89" y="66" width="78.76" height="18.5"/><rect class="cls-2" x="177.9" y="66" width="224.81" height="18.5"/><rect class="cls-2" x="405.71" y="66" width="58.64" height="18.5"/><rect class="cls-2" x="34.5" y="87.25" width="58.64" height="18.5"/><rect class="cls-2" x="95.89" y="87.25" width="78.76" height="18.5"/><rect class="cls-2" x="177.9" y="87.25" width="224.81" height="18.5"/><rect class="cls-2" x="405.71" y="87.25" width="58.64" height="18.5"/><rect class="cls-2" x="34.5" y="108.5" width="58.64" height="18.5"/><rect class="cls-2" x="95.89" y="108.5" width="78.76" height="18.5"/><rect class="cls-2" x="177.9" y="108.5" width="224.81" height="18.5"/><rect class="cls-2" x="405.71" y="108.5" width="58.64" height="18.5"/><rect class="cls-2" x="34.5" y="129.75" width="58.64" height="18.5"/><rect class="cls-2" x="95.89" y="129.75" width="78.76" height="18.5"/><rect class="cls-2" x="177.9" y="129.75" width="224.81" height="18.5"/><rect class="cls-2" x="405.71" y="129.75" width="58.64" height="18.5"/><rect class="cls-1" x="35.5" y="165.84" width="48.97" height="27.26"/><rect class="cls-1" x="87.22" y="165.84" width="78.76" height="27.26"/><rect class="cls-2" x="35.5" y="195.15" width="48.97" height="57.92"/><rect class="cls-2" x="87.22" y="195.15" width="78.76" height="57.92"/><rect class="cls-1" x="169.22" y="165.84" width="78.76" height="27.26"/><rect class="cls-1" x="251.23" y="165.84" width="213.12" height="27.26"/><rect class="cls-2" x="169.22" y="195.15" width="78.76" height="57.92"/><rect class="cls-2" x="251.23" y="195.15" width="213.12" height="57.92"/><rect class="cls-2" x="35.5" y="255.32" width="48.97" height="57.92"/><rect class="cls-2" x="87.22" y="255.32" width="78.76" height="57.92"/><rect class="cls-2" x="169.22" y="255.32" width="78.76" height="57.92"/><rect class="cls-2" x="251.23" y="255.32" width="213.12" height="57.92"/><rect class="cls-2" x="35.5" y="315.49" width="48.97" height="57.92"/><rect class="cls-2" x="87.22" y="315.49" width="78.76" height="57.92"/><rect class="cls-2" x="169.22" y="315.49" width="78.76" height="57.92"/><rect class="cls-2" x="251.23" y="315.49" width="213.12" height="57.92"/></svg>