<svg id="Layer_1" data-name="Layer 1" xmlns="http://www.w3.org/2000/svg" viewBox="0 0 279 71.67"><title>ppl</title><path d="M112.14,39A28.92,28.92,0,0,0,97,34.36a2.16,2.16,0,0,0-.38,0q-0.52-1.86-1.08-3.7a23.75,23.75,0,0,1,9.16,2.44c2.28,1.13,4.28-2.29,2-3.42a28.34,28.34,0,0,0-13.65-3,1.87,1.87,0,0,0-1.47.72,1.7,1.7,0,0,0-.6,2c1.24,3.83,2.34,7.7,3.26,11.62a42.36,42.36,0,0,1,1.16,5.36c0.17,1.7-.48,2.07-1.51,3.42-1.34,1.74-3.74,4.45-2.75,6.81C92,58.7,94.83,59.46,96.89,59a5.63,5.63,0,0,0,4.21-4.8c0.32-1.81.43-5-1.24-6.23l-0.29-.19a4.27,4.27,0,0,0,0-.47c-0.12-3-1.17-6.11-1.88-9a24.89,24.89,0,0,1,12.45,4.08C112.29,43.83,114.28,40.4,112.14,39Z"/><path d="M95.37,22.18a11.47,11.47,0,0,0-10-8.81,1.65,1.65,0,0,0-1.9,1.85,1.72,1.72,0,0,0-.56,1.46l0.43,7.55c0.07,1.15,1.14,6.55.43,7.55-0.45.64-2.53,1.18-3.22,1.8a6.51,6.51,0,0,0-2.12,3.23,2.79,2.79,0,0,0,2.68,3.49c2.85,0.2,5-2.6,6.08-4.91a2,2,0,0,0,.1-1.43,4.64,4.64,0,0,0,.48-1.82c0.45-4.55-.42-9.67-0.78-14.32a7.62,7.62,0,0,1,4.56,5.44C92.06,25.76,95.92,24.69,95.37,22.18Z"/><path d="M41.36,31.68c-2.08-4.81-5.38-10-10.89-10a2.06,2.06,0,0,0-3.77,1A95.71,95.71,0,0,0,27.22,38c0.08,0.64.73,4.63,0.52,4.83,0,0-3.1.55-3.29,0.63-3.22,1.23-7.3,6.57-2.86,9.09,3.54,2,10.62-2.5,9.37-6.71l-0.07-.2a4.49,4.49,0,0,0,.91-2.34c0.38-2.92-.73-6.17-1-9.12s-0.28-5.71-.23-8.57c3.89,0.07,6,5,7.29,8.09C38.92,36.06,42.36,34,41.36,31.68Z"/><path d="M188.13,27.88a3.69,3.69,0,0,0-4.1-.66,11.12,11.12,0,0,0-.94-2.47,1.84,1.84,0,0,0,.95-0.82,4.78,4.78,0,0,0-2.16-6.56,4.65,4.65,0,0,0-5.72,1.79,21.26,21.26,0,0,0-2.93-1,3.91,3.91,0,0,0-4.59-5,4.54,4.54,0,0,0-3.14,2.69,4.88,4.88,0,0,0-.36,2.13,12.17,12.17,0,0,0-2.9,1.12,5,5,0,0,0-1.76-1.88,3.74,3.74,0,0,0-4.69.87,5.1,5.1,0,0,0-1.5,4.85A3.47,3.47,0,0,0,157,25.41l0,0.08a11.58,11.58,0,0,0-1.3,3.06l-0.16.11h-0.17a7.35,7.35,0,0,0-1,0A3,3,0,0,0,151.89,30a5.52,5.52,0,0,0,.11,5.51,4.2,4.2,0,0,0,4.87,1.76l0.09,0c0.11,0.19.22,0.37,0.34,0.56,0.23,0.35.48,0.68,0.73,1a3.75,3.75,0,0,0-1.38,1.31,3.69,3.69,0,0,0,.28,4.26A4.46,4.46,0,0,0,160.7,46a3.36,3.36,0,0,0,3.13-2.6,15.82,15.82,0,0,0,2.84,1,4.32,4.32,0,0,0,3.83,5.11,4.2,4.2,0,0,0,3.64-2,4.12,4.12,0,0,0,.54-3.37,14.28,14.28,0,0,0,1.42-.55,2,2,0,0,0,.78.89c2,1.25,4.79.28,6.41-1.19a3.07,3.07,0,0,0,.93-3.29,2.76,2.76,0,0,0-2-1.82,15.73,15.73,0,0,0,1.38-3l0.05,0c2,1.21,4.23-.53,5.13-2.27A4.26,4.26,0,0,0,188.13,27.88Zm-11.69,3.8c-0.56,3.74-4,4.42-7.3,3.89-3.09-.5-6.72-2.81-5.82-6.42,0.77-3.08,4.41-4,7.25-4.74l0.3,0.15a10.53,10.53,0,0,0,2.42.66C175.36,26.84,176.9,28.63,176.44,31.67Z"/></svg>