<svg id="Layer_1" data-name="Layer 1" xmlns="http://www.w3.org/2000/svg" xmlns:xlink="http://www.w3.org/1999/xlink" viewBox="0 0 431.5 214.5"><defs><style>.cls-1{fill:#80935c;}.cls-2{fill:#607244;}.cls-3{fill:#52613d;}.cls-4{fill:#435140;}.cls-5{fill:#384544;}.cls-6{fill:#253249;}.cls-7{fill:#7e8aa2;}.cls-8{fill:url(#linear-gradient);}.cls-10,.cls-11,.cls-12,.cls-13,.cls-14,.cls-9{fill:none;stroke-miterlimit:10;}.cls-9{stroke:#80935c;}.cls-10{stroke:#607244;}.cls-11{stroke:#52613d;}.cls-12{stroke:#435140;}.cls-13{stroke:#384544;}.cls-14{stroke:#7e8aa2;}</style><linearGradient id="linear-gradient" x1="12.42" y1="109.25" x2="361.1" y2="109.25" gradientUnits="userSpaceOnUse"><stop offset="0" stop-color="#f6f7c1"/><stop offset="0.38" stop-color="#95d6dc"/><stop offset="0.44" stop-color="#7cb0ba"/><stop offset="0.52" stop-color="#618a98"/><stop offset="0.61" stop-color="#4c6a7b"/><stop offset="0.7" stop-color="#3b5165"/><stop offset="0.79" stop-color="#2f4055"/><stop offset="0.88" stop-color="#28354c"/><stop offset="1" stop-color="#263249"/></linearGradient></defs><title>ppl</title><rect class="cls-1" x="70.28" y="52.84" width="27.82" height="6.55"/><rect class="cls-2" x="99.27" y="52.84" width="27.82" height="6.55"/><rect class="cls-3" x="128.26" y="52.84" width="27.82" height="6.55"/><rect class="cls-4" x="157.24" y="52.84" width="27.82" height="6.55"/><rect class="cls-5" x="186.23" y="52.84" width="27.82" height="6.55"/><rect class="cls-6" x="70.62" y="73.09" width="27.82" height="6.55"/><rect class="cls-6" x="99.61" y="73.09" width="27.82" height="6.55"/><rect class="cls-6" x="128.59" y="73.09" width="27.82" height="6.55"/><rect class="cls-6" x="157.58" y="73.09" width="27.82" height="6.55"/><rect class="cls-6" x="186.57" y="73.09" width="27.82" height="6.55"/><rect class="cls-6" x="215.56" y="73.09" width="27.82" height="6.55"/><rect class="cls-7" x="244.55" y="73.09" width="27.82" height="6.55"/><rect class="cls-8" x="12.42" y="102.37" width="348.68" height="13.75"/><polyline class="cls-9" points="72.45 53.84 102.33 11 112 11"/><polyline class="cls-10" points="100.83 54.12 125.33 19 135 19"/><polyline class="cls-11" points="130.61 53.84 149.33 27 159 27"/><polyline class="cls-12" points="158.89 53.84 171.33 36 181 36"/><polyline class="cls-13" points="188.62 53.2 194.33 45 204 45"/><polyline class="cls-13" points="73.61 79 79.33 87.2 89 87.2"/><polyline class="cls-14" points="247.62 79 253.33 87.2 263 87.2"/></svg>