<svg id="Layer_1" data-name="Layer 1" xmlns="http://www.w3.org/2000/svg" viewBox="0 0 74.48 90.8"><defs><style>.cls-1{fill:#818974;}</style></defs><title>ppl</title><path class="cls-1" d="M56.55,11.18a6.1,6.1,0,0,0-2.48.5,4.09,4.09,0,0,0-5.41-2.6c-1.59.59-2.16,2.3-2.71,3.76L45.5,14.09a22.46,22.46,0,0,1-3.09,5.26,8.1,8.1,0,0,1-2.61,1.6c-0.4.15-.54,0.88,0,1A6.21,6.21,0,0,0,45,20.44,11.2,11.2,0,0,0,47.06,18a11.5,11.5,0,0,1,1.43-2.21,3.68,3.68,0,0,1,2.09-.84l0.47,0c-1.48,3.84.34,9.23,5.49,9.23C65.55,24.18,65.55,11.18,56.55,11.18Z"/><path class="cls-1" d="M73.4,48.39c-3.48-2.54-7.37-4.54-9.16-8.54s-3.06-8.37-4.57-12.5a2.63,2.63,0,0,0-3.49-1.51,2.1,2.1,0,0,0-1.73,0c-4.68,1.78-10.16,3.09-14.51,5.56-3.33,1.89-5.39,6.06-7.23,9.26-1.61,2.79,2.71,5.31,4.32,2.52,1.92-3.34,3.54-6.52,7.15-8.11,0.46-.2.93-0.38,1.39-0.58l-0.15.6c-1.54,3.54-3.37,6.74-3.9,10.65,0,0.14,0,.27,0,0.41s0,0.11,0,.16,0,0.41,0,.62,0,0.22,0,.33,0,0.46,0,.69c0,0.68,0,1.35,0,2,0.22,4.89,1.61,9.68,1.7,14.61a2.53,2.53,0,0,0,.26,1.09c-1.74,4.15-5.36,8.22-7.79,11.89-1.78,2.69,2.55,5.2,4.32,2.52,2.82-4.26,7.64-9.37,9-14.31,1-3.91.91-8.54,0.84-12.9,2.58,5.13,6.26,9.43,9,14.47,0.9,3.38,1.21,7,1.78,10.4,0.53,3.17,5.35,1.82,4.82-1.33-0.78-4.66-1.13-9.68-3-14.06-1.69-4-4.23-7.63-6.4-11.33a2.71,2.71,0,0,0-.22-0.3,35,35,0,0,0,2.12-4.33c0.59-1.22,1.45-2.57,2-3.92,0.29,0.63.6,1.24,0.94,1.82,2.09,3.66,7,6,10.27,8.44C73.48,54.61,76,50.27,73.4,48.39Z"/><path class="cls-1" d="M23.95,11.67C21.37,10,18,9.28,15.29,7.83A69.74,69.74,0,0,1,4.27.62C2.73-.61-0.12,0,0,2.38c1.46,28.56.47,57.4,0.55,86a2.43,2.43,0,0,0,3,2.37A2.35,2.35,0,0,0,5,90,115.91,115.91,0,0,1,20.18,77.43a2.45,2.45,0,0,0,2.29-2.09,2.57,2.57,0,0,0,.11-1.62q1.06-23.9,3.1-47.74C26,21.69,28.4,14.55,23.95,11.67ZM16.65,14c1.13,0.51,2.89.81,3.79,1.58,1.28,1.11.92,1.91,0.84,3.65-0.18,3.84-.69,7.69-1,11.53Q18.53,51.94,17.6,73.15a123.22,123.22,0,0,0-12,9.54c0-25,.71-50.2-0.32-75.19A70.31,70.31,0,0,0,16.65,14Z"/></svg>