<svg id="Layer_1" data-name="Layer 1" xmlns="http://www.w3.org/2000/svg" viewBox="0 0 44.84 37.62"><defs><style>.cls-1{fill:#8bbc2e;}</style></defs><title>ppl</title><path class="cls-1" d="M18.27,9.82c2.22-3.15.42-7-2.25-9.16A1.27,1.27,0,0,0,15.7.42l-0.19-.15C14-.78,12.63,1.44,13.74,2.64,15,5.7,10.72,4.4,9.22,4.37a6.83,6.83,0,0,0-3.51.76,4.14,4.14,0,0,0-2.2,4.77A3.57,3.57,0,0,0,4.17,11c-1,2.16-1.19,5.27.12,7.08a9.62,9.62,0,0,0,8.19,3.41c4.84-.71,7.16-6.87,5-10.8A5.59,5.59,0,0,0,18.27,9.82Zm-7.14,8.69c-1.65-.11-3.6-1-4.3-2.49a4.61,4.61,0,0,1-.05-3.45,9.84,9.84,0,0,0,3.69.2A12.21,12.21,0,0,0,15,12.17C16.49,14.59,14,18.71,11.13,18.51Z"/><path class="cls-1" d="M44.46,26.9c-0.21-.55-1.07-1-1.24-1.49-0.45-1.3.17-1.6,0.05-2.77-0.25-2.42-1.93-3.22-1.55-5.75,0.27-1.82.57-1.78-.16-3.45-1-2.32-1.09.32-2.22-4.41A20,20,0,0,0,39,6.94a6.07,6.07,0,0,0-4.8-3.82c-4.09-.8-8.1,1-9.25,5.1,0,0,0,.07,0,0.11a1.59,1.59,0,0,0-.29.47c-1.35,3.36-2.12,7.59,1.49,9.84a8.29,8.29,0,0,0,7.13.87,6.52,6.52,0,0,0,.34,1.08c-2.3,1.8-5.49.56-7.75-.71a1.4,1.4,0,0,0-1.25-.1,1.3,1.3,0,0,0-1,.48,19,19,0,0,0-3.26,5,9.61,9.61,0,0,0-2.52-3.79,1.4,1.4,0,0,0-2.24-.23,5.4,5.4,0,0,1-4.17,2.13c-2,.05-3.86-0.12-5.14-1.74a1.23,1.23,0,0,0-2-.05C0.89,23.9.16,29.41,0,33.2a1.29,1.29,0,0,0,.94,1.37l0.15,0.06a32.81,32.81,0,0,0,13.12,1.46c1.28-.16,4.17-0.53,5.89-1.63A7.23,7.23,0,0,0,22,35.53c6.42,2.64,16.44,3.88,20.59-3,0.13-.08.27-0.14,0.39-0.23a1.55,1.55,0,0,0,.75-0.56A4.58,4.58,0,0,0,44.46,26.9ZM33.59,15.46c-1.19,2-4.27,1.82-6,.52-2-1.48-.94-4.14-0.16-6.07a7.7,7.7,0,0,1,5.42.18C35.21,11,34.64,13.67,33.59,15.46Zm-15.26,17c-1,.4-7.47.82-8.32,0.78a32.54,32.54,0,0,1-6.94-1.16c0.16-2.35.62-5.57,2.16-7.29a9.77,9.77,0,0,0,6.25,1.63,7.44,7.44,0,0,0,5.1-1.88c1.6,2.13,2,5.18,1.74,7.76A1.55,1.55,0,0,0,18.33,32.44Zm7.17,1.23c-0.71-.25-3.39-0.9-3.64-1.46a10.8,10.8,0,0,1,.38-2.8A14,14,0,0,1,25.29,23c3,1.48,6.43,2.16,9.35.51a6.13,6.13,0,0,0-.25,1.5c0.11,2.32,2.38,4.18,1.59,6.56a1.28,1.28,0,0,0,.17,1.23,1.39,1.39,0,0,0,.93.77C33.66,35.29,29,34.87,25.5,33.68Z"/></svg>