<svg id="Layer_1" data-name="Layer 1" xmlns="http://www.w3.org/2000/svg" viewBox="0 0 40.57 45.91"><defs><style>.cls-1{fill:#5b6053;}</style></defs><title>search</title><path class="cls-1" d="M39.41,39.06a118.5,118.5,0,0,1-8.55-9.66,22.18,22.18,0,0,0,2.94-10C34.24,14,32.92,9,30.06,5.53,26.21,0.81,20.54.29,17.41,0H17C11.57,0.42,6.63,4.7,4.76,6.52A15.91,15.91,0,0,0,0,18.43c0.18,8.46,7.14,15.81,16.17,17.1a19.37,19.37,0,0,0,2.72.2,15.53,15.53,0,0,0,6-1.14c0.1,0.16.2,0.32,0.32,0.47a118.45,118.45,0,0,0,8.55,9.67C37.37,48.39,43,42.73,39.41,39.06ZM24.85,27.57c-1.65,1.8-4.5,2.56-7.83,2.08-6.19-.88-11-5.76-11.07-11.35a10,10,0,0,1,3-7.52c2.1-2,5.5-4.49,8.32-4.82,4.42,0.43,6.59,1.31,8.24,3.33C27.34,11.59,28.2,15,27.88,19,27.67,21.61,27,25.26,24.85,27.57Z"/></svg>