<svg id="speech-bubble" viewBox="0 0 38.23 38.97"><path class="speech-bubble" d="M11.13,39h0a5.08,5.08,0,0,1-5.08-5.08V30.64A8,8,0,0,1,0,22.87V8A8,8,0,0,1,8,0H30.23a8,8,0,0,1,8,8V22.88a8,8,0,0,1-8,8H20.94a1.17,1.17,0,0,0-1,.53,24.13,24.13,0,0,1-5.75,6.48A4.92,4.92,0,0,1,11.13,39ZM8,3.89A4.12,4.12,0,0,0,3.89,8V22.88A4.12,4.12,0,0,0,8,27a1.94,1.94,0,0,1,1.94,1.94v5a1.18,1.18,0,0,0,1.18,1.18h0a1.09,1.09,0,0,0,.68-0.25,20.28,20.28,0,0,0,4.82-5.45,5.06,5.06,0,0,1,4.3-2.4h9.29a4.12,4.12,0,0,0,4.11-4.11V8a4.12,4.12,0,0,0-4.11-4.11H8Z"/></svg>